<svg version="1.1" xmlns="http://www.w3.org/2000/svg" xmlns:xlink="http://www.w3.org/1999/xlink" width="1996" height="2308"><defs/><g><g transform="translate(-198,-254) scale(1,1)"><rect fill="#C0C0C0" stroke="none" x="551" y="271" width="1640" height="2288" opacity="0.2"/></g><g transform="translate(-198,-254) scale(1,1)"><rect fill="#ffffff" stroke="none" x="544" y="264" width="1640" height="2288"/></g><g transform="translate(-198,-254) scale(1,1)"><path fill="none" stroke="#000000" d="M 544 264 L 2184 264 L 2184 2552 L 544 2552 L 544 264 Z Z" stroke-miterlimit="10"/></g><g transform="translate(-198,-254) scale(1,1)"><g><path fill="none" stroke="none"/><text fill="#000000" stroke="none" font-family="Arial" font-size="13px" font-style="normal" font-weight="bold" text-decoration="none" x="1331.490478515625" y="282">GestResto</text></g></g><g transform="translate(-198,-254) scale(1,1)"><g><path fill="none" stroke="none"/><text fill="#000000" stroke="none" font-family="Arial" font-size="13px" font-style="normal" font-weight="normal" text-decoration="none" x="1321.740478515625" y="297">(from Analyse)</text></g></g><g transform="translate(-198,-254) scale(1,1)"><path fill="#ffffff" stroke="none" d="M 246.08024875710228 1393.6799999999998 C 246.08024875710228 1388.8861679359998 249.9660910820477 1385 254.759521484375 1385 C 259.55295188670226 1385 263.43879421164775 1388.8861679359998 263.43879421164775 1393.6799999999998 C 263.43879421164775 1398.473832064 259.55295188670226 1402.36 254.759521484375 1402.36 C 249.9660910820477 1402.36 246.08024875710228 1398.473832064 246.08024875710228 1393.6799999999998 Z"/></g><g transform="translate(-198,-254) scale(1,1)"><path fill="none" stroke="#000000" d="M 246.08024875710228 1393.6799999999998 C 246.08024875710228 1388.8861679359998 249.9660910820477 1385 254.759521484375 1385 C 259.55295188670226 1385 263.43879421164775 1388.8861679359998 263.43879421164775 1393.6799999999998 C 263.43879421164775 1398.473832064 259.55295188670226 1402.36 254.759521484375 1402.36 C 249.9660910820477 1402.36 246.08024875710228 1398.473832064 246.08024875710228 1393.6799999999998 Z" stroke-miterlimit="10"/></g><g transform="translate(-198,-254) scale(1,1)"><path fill="none" stroke="#000000" d="M 254.759521484375 1402.36 L 254.759521484375 1419.64" stroke-miterlimit="10"/></g><g transform="translate(-198,-254) scale(1,1)"><path fill="none" stroke="#000000" d="M 245.56970330255683 1408.84 L 263.94933966619317 1408.84" stroke-miterlimit="10"/></g><g transform="translate(-198,-254) scale(1,1)"><path fill="none" stroke="#000000" d="M 254.759521484375 1419.64 L 241.99588512073865 1437" stroke-miterlimit="10"/></g><g transform="translate(-198,-254) scale(1,1)"><path fill="none" stroke="#000000" d="M 254.759521484375 1419.64 L 267.52315784801135 1437" stroke-miterlimit="10"/></g><g transform="translate(-198,-254) scale(1,1)"><g><path fill="none" stroke="none"/><text fill="#ff0000" stroke="none" font-family="Arial" font-size="13px" font-style="normal" font-weight="bold" text-decoration="none" x="215.0263671875" y="1456">Gestionnaire</text></g></g><g transform="translate(-198,-254) scale(1,1)"><g><path fill="none" stroke="none"/><text fill="#ff0000" stroke="none" font-family="Arial" font-size="13px" font-style="normal" font-weight="normal" text-decoration="none" x="212.5" y="1471">(from Analyse)</text></g></g><g transform="translate(-198,-254) scale(1,1)"><path fill="#C0C0C0" stroke="none" d="M 767 1402.5 C 767 1387.312168 821.845112 1375 889.5 1375 C 957.154888 1375 1012 1387.312168 1012 1402.5 C 1012 1417.687832 957.154888 1430 889.5 1430 C 821.845112 1430 767 1417.687832 767 1402.5 Z" opacity="0.2"/></g><g transform="translate(-198,-254) scale(1,1)"><path fill="#ffffff" stroke="none" d="M 760 1395.5 C 760 1380.312168 814.845112 1368 882.5 1368 C 950.154888 1368 1005 1380.312168 1005 1395.5 C 1005 1410.687832 950.154888 1423 882.5 1423 C 814.845112 1423 760 1410.687832 760 1395.5 Z"/></g><g transform="translate(-198,-254) scale(1,1)"><path fill="none" stroke="#000000" d="M 760 1395.5 C 760 1380.312168 814.845112 1368 882.5 1368 C 950.154888 1368 1005 1380.312168 1005 1395.5 C 1005 1410.687832 950.154888 1423 882.5 1423 C 814.845112 1423 760 1410.687832 760 1395.5 Z" stroke-miterlimit="10"/></g><g transform="translate(-198,-254) scale(1,1)"><g><path fill="none" stroke="none"/><text fill="#000000" stroke="none" font-family="Arial" font-size="13px" font-style="normal" font-weight="bold" text-decoration="none" x="800.50732421875" y="1393.5">Consulter les Commandes</text></g></g><g transform="translate(-198,-254) scale(1,1)"><g><path fill="none" stroke="none"/><text fill="#000000" stroke="none" font-family="Arial" font-size="13px" font-style="normal" font-weight="normal" text-decoration="none" x="840.240478515625" y="1408.5">(from Analyse)</text></g></g><g transform="translate(-198,-254) scale(1,1)"><path fill="none" stroke="#000000" d="M 303 1428 L 759 1402" stroke-miterlimit="10"/></g><g transform="translate(-198,-254) scale(1,1)"><path fill="#C0C0C0" stroke="none" d="M 639 1914.5 C 639 1899.312168 681.3090864 1887 733.5 1887 C 785.6909136 1887 828 1899.312168 828 1914.5 C 828 1929.687832 785.6909136 1942 733.5 1942 C 681.3090864 1942 639 1929.687832 639 1914.5 Z" opacity="0.2"/></g><g transform="translate(-198,-254) scale(1,1)"><path fill="#ffffff" stroke="none" d="M 632 1907.5 C 632 1892.312168 674.3090864 1880 726.5 1880 C 778.6909136 1880 821 1892.312168 821 1907.5 C 821 1922.687832 778.6909136 1935 726.5 1935 C 674.3090864 1935 632 1922.687832 632 1907.5 Z"/></g><g transform="translate(-198,-254) scale(1,1)"><path fill="none" stroke="#000000" d="M 632 1907.5 C 632 1892.312168 674.3090864 1880 726.5 1880 C 778.6909136 1880 821 1892.312168 821 1907.5 C 821 1922.687832 778.6909136 1935 726.5 1935 C 674.3090864 1935 632 1922.687832 632 1907.5 Z" stroke-miterlimit="10"/></g><g transform="translate(-198,-254) scale(1,1)"><g><path fill="none" stroke="none"/><text fill="#000000" stroke="none" font-family="Arial" font-size="13px" font-style="normal" font-weight="bold" text-decoration="none" x="663.99462890625" y="1905.5">Gérer les Livraisons</text></g></g><g transform="translate(-198,-254) scale(1,1)"><g><path fill="none" stroke="none"/><text fill="#000000" stroke="none" font-family="Arial" font-size="13px" font-style="normal" font-weight="normal" text-decoration="none" x="684.240478515625" y="1920.5">(from Analyse)</text></g></g><g transform="translate(-198,-254) scale(1,1)"><path fill="none" stroke="#000000" d="M 302 1479 L 698 1879" stroke-miterlimit="10"/></g><g transform="translate(-198,-254) scale(1,1)"><path fill="#C0C0C0" stroke="none" d="M 607 2082.5 C 607 2067.312168 661.845112 2055 729.5 2055 C 797.154888 2055 852 2067.312168 852 2082.5 C 852 2097.687832 797.154888 2110 729.5 2110 C 661.845112 2110 607 2097.687832 607 2082.5 Z" opacity="0.2"/></g><g transform="translate(-198,-254) scale(1,1)"><path fill="#ffffff" stroke="none" d="M 600 2075.5 C 600 2060.312168 654.845112 2048 722.5 2048 C 790.154888 2048 845 2060.312168 845 2075.5 C 845 2090.687832 790.154888 2103 722.5 2103 C 654.845112 2103 600 2090.687832 600 2075.5 Z"/></g><g transform="translate(-198,-254) scale(1,1)"><path fill="none" stroke="#000000" d="M 600 2075.5 C 600 2060.312168 654.845112 2048 722.5 2048 C 790.154888 2048 845 2060.312168 845 2075.5 C 845 2090.687832 790.154888 2103 722.5 2103 C 654.845112 2103 600 2090.687832 600 2075.5 Z" stroke-miterlimit="10"/></g><g transform="translate(-198,-254) scale(1,1)"><g><path fill="none" stroke="none"/><text fill="#000000" stroke="none" font-family="Arial" font-size="13px" font-style="normal" font-weight="bold" text-decoration="none" x="640.513671875" y="2073.5">Consulter les stats du jour</text></g></g><g transform="translate(-198,-254) scale(1,1)"><g><path fill="none" stroke="none"/><text fill="#000000" stroke="none" font-family="Arial" font-size="13px" font-style="normal" font-weight="normal" text-decoration="none" x="680.240478515625" y="2088.5">(from Analyse)</text></g></g><g transform="translate(-198,-254) scale(1,1)"><path fill="none" stroke="#000000" d="M 289 1479 L 702 2047" stroke-miterlimit="10"/></g><g transform="translate(-198,-254) scale(1,1)"><path fill="#C0C0C0" stroke="none" d="M 1135 1392 C 1135 1382.6111584 1182.2339536 1375 1240.5 1375 C 1298.7660464 1375 1346 1382.6111584 1346 1392 C 1346 1401.3888416 1298.7660464 1409 1240.5 1409 C 1182.2339536 1409 1135 1401.3888416 1135 1392 Z" opacity="0.2"/></g><g transform="translate(-198,-254) scale(1,1)"><path fill="#ffffff" stroke="none" d="M 1128 1385 C 1128 1375.6111584 1175.2339536 1368 1233.5 1368 C 1291.7660464 1368 1339 1375.6111584 1339 1385 C 1339 1394.3888416 1291.7660464 1402 1233.5 1402 C 1175.2339536 1402 1128 1394.3888416 1128 1385 Z"/></g><g transform="translate(-198,-254) scale(1,1)"><path fill="none" stroke="#000000" d="M 1128 1385 C 1128 1375.6111584 1175.2339536 1368 1233.5 1368 C 1291.7660464 1368 1339 1375.6111584 1339 1385 C 1339 1394.3888416 1291.7660464 1402 1233.5 1402 C 1175.2339536 1402 1128 1394.3888416 1128 1385 Z" stroke-miterlimit="10"/></g><g transform="translate(-198,-254) scale(1,1)"><g><path fill="none" stroke="none"/><text fill="#000000" stroke="none" font-family="Arial" font-size="13px" font-style="normal" font-weight="bold" text-decoration="none" x="1163.421875" y="1390.5">Filtrer les Commandes</text></g></g><g transform="translate(-198,-254) scale(1,1)"><path fill="none" stroke="#000000" d="M 1127 1388 L 1006 1391" stroke-miterlimit="10" stroke-dasharray="3"/></g><g transform="translate(-198,-254) scale(1,1)"><path fill="none" stroke="#000000" d="M 1016.0552165918953 1386.539885731276 L 1006 1391 L 1016.2638888827101 1394.956334794147" stroke-miterlimit="10"/></g><g transform="translate(-198,-254) scale(1,1)"><g><path fill="none" stroke="none"/><text fill="#000000" stroke="none" font-family="Arial" font-size="13px" font-style="normal" font-weight="normal" text-decoration="none" x="1029.5" y="1380">«extend»</text></g></g><g transform="translate(-198,-254) scale(1,1)"><path fill="#C0C0C0" stroke="none" d="M 959 1785 C 959 1770.6405952 1009.1441024 1759 1071 1759 C 1132.8558976 1759 1183 1770.6405952 1183 1785 C 1183 1799.3594048 1132.8558976 1811 1071 1811 C 1009.1441024 1811 959 1799.3594048 959 1785 Z" opacity="0.2"/></g><g transform="translate(-198,-254) scale(1,1)"><path fill="#ffffff" stroke="none" d="M 952 1778 C 952 1763.6405952 1002.1441024 1752 1064 1752 C 1125.8558976 1752 1176 1763.6405952 1176 1778 C 1176 1792.3594048 1125.8558976 1804 1064 1804 C 1002.1441024 1804 952 1792.3594048 952 1778 Z"/></g><g transform="translate(-198,-254) scale(1,1)"><path fill="none" stroke="#000000" d="M 952 1778 C 952 1763.6405952 1002.1441024 1752 1064 1752 C 1125.8558976 1752 1176 1763.6405952 1176 1778 C 1176 1792.3594048 1125.8558976 1804 1064 1804 C 1002.1441024 1804 952 1792.3594048 952 1778 Z" stroke-miterlimit="10"/></g><g transform="translate(-198,-254) scale(1,1)"><g><path fill="none" stroke="none"/><text fill="#000000" stroke="none" font-family="Arial" font-size="13px" font-style="normal" font-weight="bold" text-decoration="none" x="1001.15185546875" y="1777">Afficher les groupes</text><text fill="#000000" stroke="none" font-family="Arial" font-size="13px" font-style="normal" font-weight="bold" text-decoration="none" x="1002.95458984375" y="1790">Livraisons par zone</text></g></g><g transform="translate(-198,-254) scale(1,1)"><path fill="#C0C0C0" stroke="none" d="M 1015 1873 C 1015 1858.6405952 1063.3532416 1847 1123 1847 C 1182.6467584 1847 1231 1858.6405952 1231 1873 C 1231 1887.3594048 1182.6467584 1899 1123 1899 C 1063.3532416 1899 1015 1887.3594048 1015 1873 Z" opacity="0.2"/></g><g transform="translate(-198,-254) scale(1,1)"><path fill="#ffffff" stroke="none" d="M 1008 1866 C 1008 1851.6405952 1056.3532416 1840 1116 1840 C 1175.6467584 1840 1224 1851.6405952 1224 1866 C 1224 1880.3594048 1175.6467584 1892 1116 1892 C 1056.3532416 1892 1008 1880.3594048 1008 1866 Z"/></g><g transform="translate(-198,-254) scale(1,1)"><path fill="none" stroke="#000000" d="M 1008 1866 C 1008 1851.6405952 1056.3532416 1840 1116 1840 C 1175.6467584 1840 1224 1851.6405952 1224 1866 C 1224 1880.3594048 1175.6467584 1892 1116 1892 C 1056.3532416 1892 1008 1880.3594048 1008 1866 Z" stroke-miterlimit="10"/></g><g transform="translate(-198,-254) scale(1,1)"><g><path fill="none" stroke="none"/><text fill="#000000" stroke="none" font-family="Arial" font-size="13px" font-style="normal" font-weight="bold" text-decoration="none" x="1052.437744140625" y="1865">Affecter un groupe à</text><text fill="#000000" stroke="none" font-family="Arial" font-size="13px" font-style="normal" font-weight="bold" text-decoration="none" x="1059.658203125" y="1878">Livreur disponible</text></g></g><g transform="translate(-198,-254) scale(1,1)"><path fill="none" stroke="#000000" d="M 799 1879 L 993 1805" stroke-miterlimit="10" stroke-dasharray="3"/></g><g transform="translate(-198,-254) scale(1,1)"><path fill="none" stroke="#000000" d="M 985.0049112441034 1812.5550351280015 L 993 1805 L 982.0044019534048 1804.6888350956294" stroke-miterlimit="10"/></g><g transform="translate(-198,-254) scale(1,1)"><g><path fill="none" stroke="none"/><text fill="#000000" stroke="none" font-family="Arial" font-size="13px" font-style="normal" font-weight="normal" text-decoration="none" x="834.5" y="1841">«include»</text></g></g><g transform="translate(-198,-254) scale(1,1)"><path fill="#C0C0C0" stroke="none" d="M 1047 1954.5 C 1047 1934.8938896 1084.6080768 1919 1131 1919 C 1177.3919232 1919 1215 1934.8938896 1215 1954.5 C 1215 1974.1061104 1177.3919232 1990 1131 1990 C 1084.6080768 1990 1047 1974.1061104 1047 1954.5 Z" opacity="0.2"/></g><g transform="translate(-198,-254) scale(1,1)"><path fill="#ffffff" stroke="none" d="M 1040 1947.5 C 1040 1927.8938896 1077.6080768 1912 1124 1912 C 1170.3919232 1912 1208 1927.8938896 1208 1947.5 C 1208 1967.1061104 1170.3919232 1983 1124 1983 C 1077.6080768 1983 1040 1967.1061104 1040 1947.5 Z"/></g><g transform="translate(-198,-254) scale(1,1)"><path fill="none" stroke="#000000" d="M 1040 1947.5 C 1040 1927.8938896 1077.6080768 1912 1124 1912 C 1170.3919232 1912 1208 1927.8938896 1208 1947.5 C 1208 1967.1061104 1170.3919232 1983 1124 1983 C 1077.6080768 1983 1040 1967.1061104 1040 1947.5 Z" stroke-miterlimit="10"/></g><g transform="translate(-198,-254) scale(1,1)"><g><path fill="none" stroke="none"/><text fill="#000000" stroke="none" font-family="Arial" font-size="13px" font-style="normal" font-weight="bold" text-decoration="none" x="1070.905029296875" y="1940">Placer un groupe</text><text fill="#000000" stroke="none" font-family="Arial" font-size="13px" font-style="normal" font-weight="bold" text-decoration="none" x="1080.2900390625" y="1953">de Livraison à</text><text fill="#000000" stroke="none" font-family="Arial" font-size="13px" font-style="normal" font-weight="bold" text-decoration="none" x="1108.464111328125" y="1966">Livré</text></g></g><g transform="translate(-198,-254) scale(1,1)"><path fill="none" stroke="#000000" d="M 1039 1938 L 822 1917" stroke-miterlimit="10" stroke-dasharray="3"/></g><g transform="translate(-198,-254) scale(1,1)"><path fill="none" stroke="#000000" d="M 832.5208969658922 1913.7889679177747 L 822 1917 L 831.7099401486964 1922.1688550287984" stroke-miterlimit="10"/></g><g transform="translate(-198,-254) scale(1,1)"><g><path fill="none" stroke="none"/><text fill="#000000" stroke="none" font-family="Arial" font-size="13px" font-style="normal" font-weight="normal" text-decoration="none" x="893.5" y="1951">«extend»</text></g></g><g transform="translate(-198,-254) scale(1,1)"><path fill="#C0C0C0" stroke="none" d="M 1167 2082.5 C 1167 2062.8938896 1208.1897984 2047 1259 2047 C 1309.8102016 2047 1351 2062.8938896 1351 2082.5 C 1351 2102.1061104 1309.8102016 2118 1259 2118 C 1208.1897984 2118 1167 2102.1061104 1167 2082.5 Z" opacity="0.2"/></g><g transform="translate(-198,-254) scale(1,1)"><path fill="#ffffff" stroke="none" d="M 1160 2075.5 C 1160 2055.8938896 1201.1897984 2040 1252 2040 C 1302.8102016 2040 1344 2055.8938896 1344 2075.5 C 1344 2095.1061104 1302.8102016 2111 1252 2111 C 1201.1897984 2111 1160 2095.1061104 1160 2075.5 Z"/></g><g transform="translate(-198,-254) scale(1,1)"><path fill="none" stroke="#000000" d="M 1160 2075.5 C 1160 2055.8938896 1201.1897984 2040 1252 2040 C 1302.8102016 2040 1344 2055.8938896 1344 2075.5 C 1344 2095.1061104 1302.8102016 2111 1252 2111 C 1201.1897984 2111 1160 2095.1061104 1160 2075.5 Z" stroke-miterlimit="10"/></g><g transform="translate(-198,-254) scale(1,1)"><g><path fill="none" stroke="none"/><text fill="#000000" stroke="none" font-family="Arial" font-size="13px" font-style="normal" font-weight="bold" text-decoration="none" x="1221.66455078125" y="2068">Consulter</text><text fill="#000000" stroke="none" font-family="Arial" font-size="13px" font-style="normal" font-weight="bold" text-decoration="none" x="1203.59912109375" y="2081">Commandes en</text><text fill="#000000" stroke="none" font-family="Arial" font-size="13px" font-style="normal" font-weight="bold" text-decoration="none" x="1207.582275390625" y="2094">Cours du Jour</text></g></g><g transform="translate(-198,-254) scale(1,1)"><path fill="#C0C0C0" stroke="none" d="M 1111 2186.5 C 1111 2166.8938896 1145.0263552 2151 1187 2151 C 1228.9736448 2151 1263 2166.8938896 1263 2186.5 C 1263 2206.1061104 1228.9736448 2222 1187 2222 C 1145.0263552 2222 1111 2206.1061104 1111 2186.5 Z" opacity="0.2"/></g><g transform="translate(-198,-254) scale(1,1)"><path fill="#ffffff" stroke="none" d="M 1104 2179.5 C 1104 2159.8938896 1138.0263552 2144 1180 2144 C 1221.9736448 2144 1256 2159.8938896 1256 2179.5 C 1256 2199.1061104 1221.9736448 2215 1180 2215 C 1138.0263552 2215 1104 2199.1061104 1104 2179.5 Z"/></g><g transform="translate(-198,-254) scale(1,1)"><path fill="none" stroke="#000000" d="M 1104 2179.5 C 1104 2159.8938896 1138.0263552 2144 1180 2144 C 1221.9736448 2144 1256 2159.8938896 1256 2179.5 C 1256 2199.1061104 1221.9736448 2215 1180 2215 C 1138.0263552 2215 1104 2199.1061104 1104 2179.5 Z" stroke-miterlimit="10"/></g><g transform="translate(-198,-254) scale(1,1)"><g><path fill="none" stroke="none"/><text fill="#000000" stroke="none" font-family="Arial" font-size="13px" font-style="normal" font-weight="bold" text-decoration="none" x="1149.66455078125" y="2172">Consulter</text><text fill="#000000" stroke="none" font-family="Arial" font-size="13px" font-style="normal" font-weight="bold" text-decoration="none" x="1140.990478515625" y="2185">Commandes</text><text fill="#000000" stroke="none" font-family="Arial" font-size="13px" font-style="normal" font-weight="bold" text-decoration="none" x="1153.98095703125" y="2198">Validées</text></g></g><g transform="translate(-198,-254) scale(1,1)"><path fill="#C0C0C0" stroke="none" d="M 1039 2282.5 C 1039 2262.8938896 1078.3989376 2247 1127 2247 C 1175.6010624 2247 1215 2262.8938896 1215 2282.5 C 1215 2302.1061104 1175.6010624 2318 1127 2318 C 1078.3989376 2318 1039 2302.1061104 1039 2282.5 Z" opacity="0.2"/></g><g transform="translate(-198,-254) scale(1,1)"><path fill="#ffffff" stroke="none" d="M 1032 2275.5 C 1032 2255.8938896 1071.3989376 2240 1120 2240 C 1168.6010624 2240 1208 2255.8938896 1208 2275.5 C 1208 2295.1061104 1168.6010624 2311 1120 2311 C 1071.3989376 2311 1032 2295.1061104 1032 2275.5 Z"/></g><g transform="translate(-198,-254) scale(1,1)"><path fill="none" stroke="#000000" d="M 1032 2275.5 C 1032 2255.8938896 1071.3989376 2240 1120 2240 C 1168.6010624 2240 1208 2255.8938896 1208 2275.5 C 1208 2295.1061104 1168.6010624 2311 1120 2311 C 1071.3989376 2311 1032 2295.1061104 1032 2275.5 Z" stroke-miterlimit="10"/></g><g transform="translate(-198,-254) scale(1,1)"><g><path fill="none" stroke="none"/><text fill="#000000" stroke="none" font-family="Arial" font-size="13px" font-style="normal" font-weight="bold" text-decoration="none" x="1089.66455078125" y="2268">Consulter</text><text fill="#000000" stroke="none" font-family="Arial" font-size="13px" font-style="normal" font-weight="bold" text-decoration="none" x="1092.90185546875" y="2281">Recettes</text><text fill="#000000" stroke="none" font-family="Arial" font-size="13px" font-style="normal" font-weight="bold" text-decoration="none" x="1081.3427734375" y="2294">Journalières</text></g></g><g transform="translate(-198,-254) scale(1,1)"><path fill="#C0C0C0" stroke="none" d="M 815 2290.5 C 815 2270.8938896 861.5623808 2255 919 2255 C 976.4376192 2255 1023 2270.8938896 1023 2290.5 C 1023 2310.1061104 976.4376192 2326 919 2326 C 861.5623808 2326 815 2310.1061104 815 2290.5 Z" opacity="0.2"/></g><g transform="translate(-198,-254) scale(1,1)"><path fill="#ffffff" stroke="none" d="M 808 2283.5 C 808 2263.8938896 854.5623808 2248 912 2248 C 969.4376192 2248 1016 2263.8938896 1016 2283.5 C 1016 2303.1061104 969.4376192 2319 912 2319 C 854.5623808 2319 808 2303.1061104 808 2283.5 Z"/></g><g transform="translate(-198,-254) scale(1,1)"><path fill="none" stroke="#000000" d="M 808 2283.5 C 808 2263.8938896 854.5623808 2248 912 2248 C 969.4376192 2248 1016 2263.8938896 1016 2283.5 C 1016 2303.1061104 969.4376192 2319 912 2319 C 854.5623808 2319 808 2303.1061104 808 2283.5 Z" stroke-miterlimit="10"/></g><g transform="translate(-198,-254) scale(1,1)"><g><path fill="none" stroke="none"/><text fill="#000000" stroke="none" font-family="Arial" font-size="13px" font-style="normal" font-weight="bold" text-decoration="none" x="881.66455078125" y="2276">Consulter</text><text fill="#000000" stroke="none" font-family="Arial" font-size="13px" font-style="normal" font-weight="bold" text-decoration="none" x="856.3818359375" y="2289">Burger/Menu Plus</text><text fill="#000000" stroke="none" font-family="Arial" font-size="13px" font-style="normal" font-weight="bold" text-decoration="none" x="888.8818359375" y="2302">Vendus</text></g></g><g transform="translate(-198,-254) scale(1,1)"><path fill="#C0C0C0" stroke="none" d="M 583 2298.5 C 583 2278.8938896 624.1897984 2263 675 2263 C 725.8102016 2263 767 2278.8938896 767 2298.5 C 767 2318.1061104 725.8102016 2334 675 2334 C 624.1897984 2334 583 2318.1061104 583 2298.5 Z" opacity="0.2"/></g><g transform="translate(-198,-254) scale(1,1)"><path fill="#ffffff" stroke="none" d="M 576 2291.5 C 576 2271.8938896 617.1897984 2256 668 2256 C 718.8102016 2256 760 2271.8938896 760 2291.5 C 760 2311.1061104 718.8102016 2327 668 2327 C 617.1897984 2327 576 2311.1061104 576 2291.5 Z"/></g><g transform="translate(-198,-254) scale(1,1)"><path fill="none" stroke="#000000" d="M 576 2291.5 C 576 2271.8938896 617.1897984 2256 668 2256 C 718.8102016 2256 760 2271.8938896 760 2291.5 C 760 2311.1061104 718.8102016 2327 668 2327 C 617.1897984 2327 576 2311.1061104 576 2291.5 Z" stroke-miterlimit="10"/></g><g transform="translate(-198,-254) scale(1,1)"><g><path fill="none" stroke="none"/><text fill="#000000" stroke="none" font-family="Arial" font-size="13px" font-style="normal" font-weight="bold" text-decoration="none" x="637.66455078125" y="2284">Consulter</text><text fill="#000000" stroke="none" font-family="Arial" font-size="13px" font-style="normal" font-weight="bold" text-decoration="none" x="628.990478515625" y="2297">Commandes</text><text fill="#000000" stroke="none" font-family="Arial" font-size="13px" font-style="normal" font-weight="bold" text-decoration="none" x="638.74365234375" y="2310">Annulées</text></g></g><g transform="translate(-198,-254) scale(1,1)"><path fill="#C0C0C0" stroke="none" d="M 623 426.5 C 623 411.312168 669.5623808 399 727 399 C 784.4376192 399 831 411.312168 831 426.5 C 831 441.687832 784.4376192 454 727 454 C 669.5623808 454 623 441.687832 623 426.5 Z" opacity="0.2"/></g><g transform="translate(-198,-254) scale(1,1)"><path fill="#ffffff" stroke="none" d="M 616 419.5 C 616 404.312168 662.5623808 392 720 392 C 777.4376192 392 824 404.312168 824 419.5 C 824 434.687832 777.4376192 447 720 447 C 662.5623808 447 616 434.687832 616 419.5 Z"/></g><g transform="translate(-198,-254) scale(1,1)"><path fill="none" stroke="#000000" d="M 616 419.5 C 616 404.312168 662.5623808 392 720 392 C 777.4376192 392 824 404.312168 824 419.5 C 824 434.687832 777.4376192 447 720 447 C 662.5623808 447 616 434.687832 616 419.5 Z" stroke-miterlimit="10"/></g><g transform="translate(-198,-254) scale(1,1)"><g><path fill="none" stroke="none"/><text fill="#000000" stroke="none" font-family="Arial" font-size="13px" font-style="normal" font-weight="bold" text-decoration="none" x="665.083251953125" y="417.5">Gérer les Burgers</text></g></g><g transform="translate(-198,-254) scale(1,1)"><g><path fill="none" stroke="none"/><text fill="#000000" stroke="none" font-family="Arial" font-size="13px" font-style="normal" font-weight="normal" text-decoration="none" x="677.740478515625" y="432.5">(from Analyse)</text></g></g><g transform="translate(-198,-254) scale(1,1)"><path fill="none" stroke="#000000" d="M 707 448 L 276 1383" stroke-miterlimit="10"/></g><g transform="translate(-198,-254) scale(1,1)"><path fill="#C0C0C0" stroke="none" d="M 767 862 C 767 840.4608928 815.8009568 823 876 823 C 936.1990432 823 985 840.4608928 985 862 C 985 883.5391072 936.1990432 901 876 901 C 815.8009568 901 767 883.5391072 767 862 Z" opacity="0.2"/></g><g transform="translate(-198,-254) scale(1,1)"><path fill="#ffffff" stroke="none" d="M 760 855 C 760 833.4608928 808.8009568 816 869 816 C 929.1990432 816 978 833.4608928 978 855 C 978 876.5391072 929.1990432 894 869 894 C 808.8009568 894 760 876.5391072 760 855 Z"/></g><g transform="translate(-198,-254) scale(1,1)"><path fill="none" stroke="#000000" d="M 760 855 C 760 833.4608928 808.8009568 816 869 816 C 929.1990432 816 978 833.4608928 978 855 C 978 876.5391072 929.1990432 894 869 894 C 808.8009568 894 760 876.5391072 760 855 Z" stroke-miterlimit="10"/></g><g transform="translate(-198,-254) scale(1,1)"><g><path fill="none" stroke="none"/><text fill="#000000" stroke="none" font-family="Arial" font-size="13px" font-style="normal" font-weight="bold" text-decoration="none" x="818.421875" y="853">Gérer les Menus</text></g></g><g transform="translate(-198,-254) scale(1,1)"><g><path fill="none" stroke="none"/><text fill="#000000" stroke="none" font-family="Arial" font-size="13px" font-style="normal" font-weight="normal" text-decoration="none" x="826.740478515625" y="868">(from Analyse)</text></g></g><g transform="translate(-198,-254) scale(1,1)"><path fill="none" stroke="#000000" d="M 826 895 L 303 1386" stroke-miterlimit="10"/></g><g transform="translate(-198,-254) scale(1,1)"><path fill="#C0C0C0" stroke="none" d="M 719 634.5 C 719 619.312168 768.0248144 607 828.5 607 C 888.9751856 607 938 619.312168 938 634.5 C 938 649.687832 888.9751856 662 828.5 662 C 768.0248144 662 719 649.687832 719 634.5 Z" opacity="0.2"/></g><g transform="translate(-198,-254) scale(1,1)"><path fill="#ffffff" stroke="none" d="M 712 627.5 C 712 612.312168 761.0248144 600 821.5 600 C 881.9751856 600 931 612.312168 931 627.5 C 931 642.687832 881.9751856 655 821.5 655 C 761.0248144 655 712 642.687832 712 627.5 Z"/></g><g transform="translate(-198,-254) scale(1,1)"><path fill="none" stroke="#000000" d="M 712 627.5 C 712 612.312168 761.0248144 600 821.5 600 C 881.9751856 600 931 612.312168 931 627.5 C 931 642.687832 881.9751856 655 821.5 655 C 761.0248144 655 712 642.687832 712 627.5 Z" stroke-miterlimit="10"/></g><g transform="translate(-198,-254) scale(1,1)"><g><path fill="none" stroke="none"/><text fill="#000000" stroke="none" font-family="Arial" font-size="13px" font-style="normal" font-weight="bold" text-decoration="none" x="748.52734375" y="625.5">Gérer les Compléments</text></g></g><g transform="translate(-198,-254) scale(1,1)"><g><path fill="none" stroke="none"/><text fill="#000000" stroke="none" font-family="Arial" font-size="13px" font-style="normal" font-weight="normal" text-decoration="none" x="779.240478515625" y="640.5">(from Analyse)</text></g></g><g transform="translate(-198,-254) scale(1,1)"><path fill="none" stroke="#000000" d="M 801 656 L 288 1383" stroke-miterlimit="10"/></g><g transform="translate(-198,-254) scale(1,1)"><path fill="#C0C0C0" stroke="none" d="M 783 1050.5 C 783 1035.312168 817.0263552 1023 859 1023 C 900.9736448 1023 935 1035.312168 935 1050.5 C 935 1065.687832 900.9736448 1078 859 1078 C 817.0263552 1078 783 1065.687832 783 1050.5 Z" opacity="0.2"/></g><g transform="translate(-198,-254) scale(1,1)"><path fill="#ffffff" stroke="none" d="M 776 1043.5 C 776 1028.312168 810.0263552 1016 852 1016 C 893.9736448 1016 928 1028.312168 928 1043.5 C 928 1058.687832 893.9736448 1071 852 1071 C 810.0263552 1071 776 1058.687832 776 1043.5 Z"/></g><g transform="translate(-198,-254) scale(1,1)"><path fill="none" stroke="#000000" d="M 776 1043.5 C 776 1028.312168 810.0263552 1016 852 1016 C 893.9736448 1016 928 1028.312168 928 1043.5 C 928 1058.687832 893.9736448 1071 852 1071 C 810.0263552 1071 776 1058.687832 776 1043.5 Z" stroke-miterlimit="10"/></g><g transform="translate(-198,-254) scale(1,1)"><g><path fill="none" stroke="none"/><text fill="#000000" stroke="none" font-family="Arial" font-size="13px" font-style="normal" font-weight="bold" text-decoration="none" x="802.865966796875" y="1041.5">Gérer les Zones</text></g></g><g transform="translate(-198,-254) scale(1,1)"><g><path fill="none" stroke="none"/><text fill="#000000" stroke="none" font-family="Arial" font-size="13px" font-style="normal" font-weight="normal" text-decoration="none" x="809.740478515625" y="1056.5">(from Analyse)</text></g></g><g transform="translate(-198,-254) scale(1,1)"><path fill="none" stroke="#000000" d="M 303 1400 L 807 1072" stroke-miterlimit="10"/></g><g transform="translate(-198,-254) scale(1,1)"><path fill="#C0C0C0" stroke="none" d="M 783 1226.5 C 783 1211.312168 821.055792 1199 868 1199 C 914.944208 1199 953 1211.312168 953 1226.5 C 953 1241.687832 914.944208 1254 868 1254 C 821.055792 1254 783 1241.687832 783 1226.5 Z" opacity="0.2"/></g><g transform="translate(-198,-254) scale(1,1)"><path fill="#ffffff" stroke="none" d="M 776 1219.5 C 776 1204.312168 814.055792 1192 861 1192 C 907.944208 1192 946 1204.312168 946 1219.5 C 946 1234.687832 907.944208 1247 861 1247 C 814.055792 1247 776 1234.687832 776 1219.5 Z"/></g><g transform="translate(-198,-254) scale(1,1)"><path fill="none" stroke="#000000" d="M 776 1219.5 C 776 1204.312168 814.055792 1192 861 1192 C 907.944208 1192 946 1204.312168 946 1219.5 C 946 1234.687832 907.944208 1247 861 1247 C 814.055792 1247 776 1234.687832 776 1219.5 Z" stroke-miterlimit="10"/></g><g transform="translate(-198,-254) scale(1,1)"><g><path fill="none" stroke="none"/><text fill="#000000" stroke="none" font-family="Arial" font-size="13px" font-style="normal" font-weight="bold" text-decoration="none" x="805.3564453125" y="1217.5">Gérer les Livreurs</text></g></g><g transform="translate(-198,-254) scale(1,1)"><g><path fill="none" stroke="none"/><text fill="#000000" stroke="none" font-family="Arial" font-size="13px" font-style="normal" font-weight="normal" text-decoration="none" x="818.740478515625" y="1232.5">(from Analyse)</text></g></g><g transform="translate(-198,-254) scale(1,1)"><path fill="none" stroke="#000000" d="M 303 1414 L 778 1248" stroke-miterlimit="10"/></g><g transform="translate(-198,-254) scale(1,1)"><path fill="#C0C0C0" stroke="none" d="M 655 321 C 655 306.6405952 690.817216 295 735 295 C 779.182784 295 815 306.6405952 815 321 C 815 335.3594048 779.182784 347 735 347 C 690.817216 347 655 335.3594048 655 321 Z" opacity="0.2"/></g><g transform="translate(-198,-254) scale(1,1)"><path fill="#ffffff" stroke="none" d="M 648 314 C 648 299.6405952 683.817216 288 728 288 C 772.182784 288 808 299.6405952 808 314 C 808 328.3594048 772.182784 340 728 340 C 683.817216 340 648 328.3594048 648 314 Z"/></g><g transform="translate(-198,-254) scale(1,1)"><path fill="none" stroke="#000000" d="M 648 314 C 648 299.6405952 683.817216 288 728 288 C 772.182784 288 808 299.6405952 808 314 C 808 328.3594048 772.182784 340 728 340 C 683.817216 340 648 328.3594048 648 314 Z" stroke-miterlimit="10"/></g><g transform="translate(-198,-254) scale(1,1)"><g><path fill="none" stroke="none"/><text fill="#000000" stroke="none" font-family="Arial" font-size="13px" font-style="normal" font-weight="bold" text-decoration="none" x="682.135009765625" y="319.5">Ajouter Burger</text></g></g><g transform="translate(-198,-254) scale(1,1)"><path fill="#C0C0C0" stroke="none" d="M 855 352 C 855 342.6111584 888.57864 335 930 335 C 971.42136 335 1005 342.6111584 1005 352 C 1005 361.3888416 971.42136 369 930 369 C 888.57864 369 855 361.3888416 855 352 Z" opacity="0.2"/></g><g transform="translate(-198,-254) scale(1,1)"><path fill="#ffffff" stroke="none" d="M 848 345 C 848 335.6111584 881.57864 328 923 328 C 964.42136 328 998 335.6111584 998 345 C 998 354.3888416 964.42136 362 923 362 C 881.57864 362 848 354.3888416 848 345 Z"/></g><g transform="translate(-198,-254) scale(1,1)"><path fill="none" stroke="#000000" d="M 848 345 C 848 335.6111584 881.57864 328 923 328 C 964.42136 328 998 335.6111584 998 345 C 998 354.3888416 964.42136 362 923 362 C 881.57864 362 848 354.3888416 848 345 Z" stroke-miterlimit="10"/></g><g transform="translate(-198,-254) scale(1,1)"><g><path fill="none" stroke="none"/><text fill="#000000" stroke="none" font-family="Arial" font-size="13px" font-style="normal" font-weight="bold" text-decoration="none" x="874.608642578125" y="350.5">Modifier Burger</text></g></g><g transform="translate(-198,-254) scale(1,1)"><path fill="#C0C0C0" stroke="none" d="M 887 424 C 887 414.6111584 921.2502128 407 963.5 407 C 1005.7497872 407 1040 414.6111584 1040 424 C 1040 433.3888416 1005.7497872 441 963.5 441 C 921.2502128 441 887 433.3888416 887 424 Z" opacity="0.2"/></g><g transform="translate(-198,-254) scale(1,1)"><path fill="#ffffff" stroke="none" d="M 880 417 C 880 407.6111584 914.2502128 400 956.5 400 C 998.7497872 400 1033 407.6111584 1033 417 C 1033 426.3888416 998.7497872 434 956.5 434 C 914.2502128 434 880 426.3888416 880 417 Z"/></g><g transform="translate(-198,-254) scale(1,1)"><path fill="none" stroke="#000000" d="M 880 417 C 880 407.6111584 914.2502128 400 956.5 400 C 998.7497872 400 1033 407.6111584 1033 417 C 1033 426.3888416 998.7497872 434 956.5 434 C 914.2502128 434 880 426.3888416 880 417 Z" stroke-miterlimit="10"/></g><g transform="translate(-198,-254) scale(1,1)"><g><path fill="none" stroke="none"/><text fill="#000000" stroke="none" font-family="Arial" font-size="13px" font-style="normal" font-weight="bold" text-decoration="none" x="907.010498046875" y="422.5">Archiver Burger</text></g></g><g transform="translate(-198,-254) scale(1,1)"><path fill="#C0C0C0" stroke="none" d="M 743 545 C 743 530.6405952 779.7126464 519 825 519 C 870.2873536 519 907 530.6405952 907 545 C 907 559.3594048 870.2873536 571 825 571 C 779.7126464 571 743 559.3594048 743 545 Z" opacity="0.2"/></g><g transform="translate(-198,-254) scale(1,1)"><path fill="#ffffff" stroke="none" d="M 736 538 C 736 523.6405952 772.7126464 512 818 512 C 863.2873536 512 900 523.6405952 900 538 C 900 552.3594048 863.2873536 564 818 564 C 772.7126464 564 736 552.3594048 736 538 Z"/></g><g transform="translate(-198,-254) scale(1,1)"><path fill="none" stroke="#000000" d="M 736 538 C 736 523.6405952 772.7126464 512 818 512 C 863.2873536 512 900 523.6405952 900 538 C 900 552.3594048 863.2873536 564 818 564 C 772.7126464 564 736 552.3594048 736 538 Z" stroke-miterlimit="10"/></g><g transform="translate(-198,-254) scale(1,1)"><g><path fill="none" stroke="none"/><text fill="#000000" stroke="none" font-family="Arial" font-size="13px" font-style="normal" font-weight="bold" text-decoration="none" x="795.25" y="537">Ajouter</text><text fill="#000000" stroke="none" font-family="Arial" font-size="13px" font-style="normal" font-weight="bold" text-decoration="none" x="778.635009765625" y="550">Complément</text></g></g><g transform="translate(-198,-254) scale(1,1)"><path fill="#C0C0C0" stroke="none" d="M 927 561 C 927 546.6405952 959.2354944 535 999 535 C 1038.7645056 535 1071 546.6405952 1071 561 C 1071 575.3594048 1038.7645056 587 999 587 C 959.2354944 587 927 575.3594048 927 561 Z" opacity="0.2"/></g><g transform="translate(-198,-254) scale(1,1)"><path fill="#ffffff" stroke="none" d="M 920 554 C 920 539.6405952 952.2354944 528 992 528 C 1031.7645056 528 1064 539.6405952 1064 554 C 1064 568.3594048 1031.7645056 580 992 580 C 952.2354944 580 920 568.3594048 920 554 Z"/></g><g transform="translate(-198,-254) scale(1,1)"><path fill="none" stroke="#000000" d="M 920 554 C 920 539.6405952 952.2354944 528 992 528 C 1031.7645056 528 1064 539.6405952 1064 554 C 1064 568.3594048 1031.7645056 580 992 580 C 952.2354944 580 920 568.3594048 920 554 Z" stroke-miterlimit="10"/></g><g transform="translate(-198,-254) scale(1,1)"><g><path fill="none" stroke="none"/><text fill="#000000" stroke="none" font-family="Arial" font-size="13px" font-style="normal" font-weight="bold" text-decoration="none" x="966.7236328125" y="553">Modifier</text><text fill="#000000" stroke="none" font-family="Arial" font-size="13px" font-style="normal" font-weight="bold" text-decoration="none" x="952.635009765625" y="566">Complément</text></g></g><g transform="translate(-198,-254) scale(1,1)"><path fill="#C0C0C0" stroke="none" d="M 1039 641 C 1039 626.6405952 1066.7583424 615 1101 615 C 1135.2416576 615 1163 626.6405952 1163 641 C 1163 655.3594048 1135.2416576 667 1101 667 C 1066.7583424 667 1039 655.3594048 1039 641 Z" opacity="0.2"/></g><g transform="translate(-198,-254) scale(1,1)"><path fill="#ffffff" stroke="none" d="M 1032 634 C 1032 619.6405952 1059.7583424 608 1094 608 C 1128.2416576 608 1156 619.6405952 1156 634 C 1156 648.3594048 1128.2416576 660 1094 660 C 1059.7583424 660 1032 648.3594048 1032 634 Z"/></g><g transform="translate(-198,-254) scale(1,1)"><path fill="none" stroke="#000000" d="M 1032 634 C 1032 619.6405952 1059.7583424 608 1094 608 C 1128.2416576 608 1156 619.6405952 1156 634 C 1156 648.3594048 1128.2416576 660 1094 660 C 1059.7583424 660 1032 648.3594048 1032 634 Z" stroke-miterlimit="10"/></g><g transform="translate(-198,-254) scale(1,1)"><g><path fill="none" stroke="none"/><text fill="#000000" stroke="none" font-family="Arial" font-size="13px" font-style="normal" font-weight="bold" text-decoration="none" x="1067.62548828125" y="633">Archiver</text><text fill="#000000" stroke="none" font-family="Arial" font-size="13px" font-style="normal" font-weight="bold" text-decoration="none" x="1054.635009765625" y="646">Complément</text></g></g><g transform="translate(-198,-254) scale(1,1)"><path fill="#C0C0C0" stroke="none" d="M 847 721 C 847 706.6405952 881.0263552 695 923 695 C 964.9736448 695 999 706.6405952 999 721 C 999 735.3594048 964.9736448 747 923 747 C 881.0263552 747 847 735.3594048 847 721 Z" opacity="0.2"/></g><g transform="translate(-198,-254) scale(1,1)"><path fill="#ffffff" stroke="none" d="M 840 714 C 840 699.6405952 874.0263552 688 916 688 C 957.9736448 688 992 699.6405952 992 714 C 992 728.3594048 957.9736448 740 916 740 C 874.0263552 740 840 728.3594048 840 714 Z"/></g><g transform="translate(-198,-254) scale(1,1)"><path fill="none" stroke="#000000" d="M 840 714 C 840 699.6405952 874.0263552 688 916 688 C 957.9736448 688 992 699.6405952 992 714 C 992 728.3594048 957.9736448 740 916 740 C 874.0263552 740 840 728.3594048 840 714 Z" stroke-miterlimit="10"/></g><g transform="translate(-198,-254) scale(1,1)"><g><path fill="none" stroke="none"/><text fill="#000000" stroke="none" font-family="Arial" font-size="13px" font-style="normal" font-weight="bold" text-decoration="none" x="874.4736328125" y="719.5">Ajouter Menu</text></g></g><g transform="translate(-198,-254) scale(1,1)"><path fill="#C0C0C0" stroke="none" d="M 1007 800 C 1007 790.6111584 1037.6684912 783 1075.5 783 C 1113.3315088 783 1144 790.6111584 1144 800 C 1144 809.3888416 1113.3315088 817 1075.5 817 C 1037.6684912 817 1007 809.3888416 1007 800 Z" opacity="0.2"/></g><g transform="translate(-198,-254) scale(1,1)"><path fill="#ffffff" stroke="none" d="M 1000 793 C 1000 783.6111584 1030.6684912 776 1068.5 776 C 1106.3315088 776 1137 783.6111584 1137 793 C 1137 802.3888416 1106.3315088 810 1068.5 810 C 1030.6684912 810 1000 802.3888416 1000 793 Z"/></g><g transform="translate(-198,-254) scale(1,1)"><path fill="none" stroke="#000000" d="M 1000 793 C 1000 783.6111584 1030.6684912 776 1068.5 776 C 1106.3315088 776 1137 783.6111584 1137 793 C 1137 802.3888416 1106.3315088 810 1068.5 810 C 1030.6684912 810 1000 802.3888416 1000 793 Z" stroke-miterlimit="10"/></g><g transform="translate(-198,-254) scale(1,1)"><g><path fill="none" stroke="none"/><text fill="#000000" stroke="none" font-family="Arial" font-size="13px" font-style="normal" font-weight="bold" text-decoration="none" x="1024.447265625" y="798.5">Modifier Menu</text></g></g><g transform="translate(-198,-254) scale(1,1)"><path fill="#C0C0C0" stroke="none" d="M 1047 880 C 1047 870.6111584 1078.340064 863 1117 863 C 1155.659936 863 1187 870.6111584 1187 880 C 1187 889.3888416 1155.659936 897 1117 897 C 1078.340064 897 1047 889.3888416 1047 880 Z" opacity="0.2"/></g><g transform="translate(-198,-254) scale(1,1)"><path fill="#ffffff" stroke="none" d="M 1040 873 C 1040 863.6111584 1071.340064 856 1110 856 C 1148.659936 856 1180 863.6111584 1180 873 C 1180 882.3888416 1148.659936 890 1110 890 C 1071.340064 890 1040 882.3888416 1040 873 Z"/></g><g transform="translate(-198,-254) scale(1,1)"><path fill="none" stroke="#000000" d="M 1040 873 C 1040 863.6111584 1071.340064 856 1110 856 C 1148.659936 856 1180 863.6111584 1180 873 C 1180 882.3888416 1148.659936 890 1110 890 C 1071.340064 890 1040 882.3888416 1040 873 Z" stroke-miterlimit="10"/></g><g transform="translate(-198,-254) scale(1,1)"><g><path fill="none" stroke="none"/><text fill="#000000" stroke="none" font-family="Arial" font-size="13px" font-style="normal" font-weight="bold" text-decoration="none" x="1064.84912109375" y="878.5">Archiver Menu</text></g></g><g transform="translate(-198,-254) scale(1,1)"><path fill="#C0C0C0" stroke="none" d="M 831 961 C 831 946.6405952 863.2354944 935 903 935 C 942.7645056 935 975 946.6405952 975 961 C 975 975.3594048 942.7645056 987 903 987 C 863.2354944 987 831 975.3594048 831 961 Z" opacity="0.2"/></g><g transform="translate(-198,-254) scale(1,1)"><path fill="#ffffff" stroke="none" d="M 824 954 C 824 939.6405952 856.2354944 928 896 928 C 935.7645056 928 968 939.6405952 968 954 C 968 968.3594048 935.7645056 980 896 980 C 856.2354944 980 824 968.3594048 824 954 Z"/></g><g transform="translate(-198,-254) scale(1,1)"><path fill="none" stroke="#000000" d="M 824 954 C 824 939.6405952 856.2354944 928 896 928 C 935.7645056 928 968 939.6405952 968 954 C 968 968.3594048 935.7645056 980 896 980 C 856.2354944 980 824 968.3594048 824 954 Z" stroke-miterlimit="10"/></g><g transform="translate(-198,-254) scale(1,1)"><g><path fill="none" stroke="none"/><text fill="#000000" stroke="none" font-family="Arial" font-size="13px" font-style="normal" font-weight="bold" text-decoration="none" x="855.917724609375" y="959.5">Ajouter Zone</text></g></g><g transform="translate(-198,-254) scale(1,1)"><path fill="#C0C0C0" stroke="none" d="M 1007 984 C 1007 974.6111584 1037.6684912 967 1075.5 967 C 1113.3315088 967 1144 974.6111584 1144 984 C 1144 993.3888416 1113.3315088 1001 1075.5 1001 C 1037.6684912 1001 1007 993.3888416 1007 984 Z" opacity="0.2"/></g><g transform="translate(-198,-254) scale(1,1)"><path fill="#ffffff" stroke="none" d="M 1000 977 C 1000 967.6111584 1030.6684912 960 1068.5 960 C 1106.3315088 960 1137 967.6111584 1137 977 C 1137 986.3888416 1106.3315088 994 1068.5 994 C 1030.6684912 994 1000 986.3888416 1000 977 Z"/></g><g transform="translate(-198,-254) scale(1,1)"><path fill="none" stroke="#000000" d="M 1000 977 C 1000 967.6111584 1030.6684912 960 1068.5 960 C 1106.3315088 960 1137 967.6111584 1137 977 C 1137 986.3888416 1106.3315088 994 1068.5 994 C 1030.6684912 994 1000 986.3888416 1000 977 Z" stroke-miterlimit="10"/></g><g transform="translate(-198,-254) scale(1,1)"><g><path fill="none" stroke="none"/><text fill="#000000" stroke="none" font-family="Arial" font-size="13px" font-style="normal" font-weight="bold" text-decoration="none" x="1025.891357421875" y="982.5">Modifier Zone</text></g></g><g transform="translate(-198,-254) scale(1,1)"><path fill="#C0C0C0" stroke="none" d="M 1023 1064 C 1023 1054.6111584 1054.340064 1047 1093 1047 C 1131.659936 1047 1163 1054.6111584 1163 1064 C 1163 1073.3888416 1131.659936 1081 1093 1081 C 1054.340064 1081 1023 1073.3888416 1023 1064 Z" opacity="0.2"/></g><g transform="translate(-198,-254) scale(1,1)"><path fill="#ffffff" stroke="none" d="M 1016 1057 C 1016 1047.6111584 1047.340064 1040 1086 1040 C 1124.659936 1040 1156 1047.6111584 1156 1057 C 1156 1066.3888416 1124.659936 1074 1086 1074 C 1047.340064 1074 1016 1066.3888416 1016 1057 Z"/></g><g transform="translate(-198,-254) scale(1,1)"><path fill="none" stroke="#000000" d="M 1016 1057 C 1016 1047.6111584 1047.340064 1040 1086 1040 C 1124.659936 1040 1156 1047.6111584 1156 1057 C 1156 1066.3888416 1124.659936 1074 1086 1074 C 1047.340064 1074 1016 1066.3888416 1016 1057 Z" stroke-miterlimit="10"/></g><g transform="translate(-198,-254) scale(1,1)"><g><path fill="none" stroke="none"/><text fill="#000000" stroke="none" font-family="Arial" font-size="13px" font-style="normal" font-weight="bold" text-decoration="none" x="1042.293212890625" y="1062.5">Archiver Zone</text></g></g><g transform="translate(-198,-254) scale(1,1)"><path fill="#C0C0C0" stroke="none" d="M 855 1129 C 855 1114.6405952 890.817216 1103 935 1103 C 979.182784 1103 1015 1114.6405952 1015 1129 C 1015 1143.3594048 979.182784 1155 935 1155 C 890.817216 1155 855 1143.3594048 855 1129 Z" opacity="0.2"/></g><g transform="translate(-198,-254) scale(1,1)"><path fill="#ffffff" stroke="none" d="M 848 1122 C 848 1107.6405952 883.817216 1096 928 1096 C 972.182784 1096 1008 1107.6405952 1008 1122 C 1008 1136.3594048 972.182784 1148 928 1148 C 883.817216 1148 848 1136.3594048 848 1122 Z"/></g><g transform="translate(-198,-254) scale(1,1)"><path fill="none" stroke="#000000" d="M 848 1122 C 848 1107.6405952 883.817216 1096 928 1096 C 972.182784 1096 1008 1107.6405952 1008 1122 C 1008 1136.3594048 972.182784 1148 928 1148 C 883.817216 1148 848 1136.3594048 848 1122 Z" stroke-miterlimit="10"/></g><g transform="translate(-198,-254) scale(1,1)"><g><path fill="none" stroke="none"/><text fill="#000000" stroke="none" font-family="Arial" font-size="13px" font-style="normal" font-weight="bold" text-decoration="none" x="881.408203125" y="1127.5">Ajouter Livreur</text></g></g><g transform="translate(-198,-254) scale(1,1)"><path fill="#C0C0C0" stroke="none" d="M 1039 1153 C 1039 1138.6405952 1073.0263552 1127 1115 1127 C 1156.9736448 1127 1191 1138.6405952 1191 1153 C 1191 1167.3594048 1156.9736448 1179 1115 1179 C 1073.0263552 1179 1039 1167.3594048 1039 1153 Z" opacity="0.2"/></g><g transform="translate(-198,-254) scale(1,1)"><path fill="#ffffff" stroke="none" d="M 1032 1146 C 1032 1131.6405952 1066.0263552 1120 1108 1120 C 1149.9736448 1120 1184 1131.6405952 1184 1146 C 1184 1160.3594048 1149.9736448 1172 1108 1172 C 1066.0263552 1172 1032 1160.3594048 1032 1146 Z"/></g><g transform="translate(-198,-254) scale(1,1)"><path fill="none" stroke="#000000" d="M 1032 1146 C 1032 1131.6405952 1066.0263552 1120 1108 1120 C 1149.9736448 1120 1184 1131.6405952 1184 1146 C 1184 1160.3594048 1149.9736448 1172 1108 1172 C 1066.0263552 1172 1032 1160.3594048 1032 1146 Z" stroke-miterlimit="10"/></g><g transform="translate(-198,-254) scale(1,1)"><g><path fill="none" stroke="none"/><text fill="#000000" stroke="none" font-family="Arial" font-size="13px" font-style="normal" font-weight="bold" text-decoration="none" x="1082.7236328125" y="1145">Modifier</text><text fill="#000000" stroke="none" font-family="Arial" font-size="13px" font-style="normal" font-weight="bold" text-decoration="none" x="1085.964111328125" y="1158">Livreur</text></g></g><g transform="translate(-198,-254) scale(1,1)"><path fill="#C0C0C0" stroke="none" d="M 1079 1241 C 1079 1226.6405952 1118.17508 1215 1166.5 1215 C 1214.82492 1215 1254 1226.6405952 1254 1241 C 1254 1255.3594048 1214.82492 1267 1166.5 1267 C 1118.17508 1267 1079 1255.3594048 1079 1241 Z" opacity="0.2"/></g><g transform="translate(-198,-254) scale(1,1)"><path fill="#ffffff" stroke="none" d="M 1072 1234 C 1072 1219.6405952 1111.17508 1208 1159.5 1208 C 1207.82492 1208 1247 1219.6405952 1247 1234 C 1247 1248.3594048 1207.82492 1260 1159.5 1260 C 1111.17508 1260 1072 1248.3594048 1072 1234 Z"/></g><g transform="translate(-198,-254) scale(1,1)"><path fill="none" stroke="#000000" d="M 1072 1234 C 1072 1219.6405952 1111.17508 1208 1159.5 1208 C 1207.82492 1208 1247 1219.6405952 1247 1234 C 1247 1248.3594048 1207.82492 1260 1159.5 1260 C 1111.17508 1260 1072 1248.3594048 1072 1234 Z" stroke-miterlimit="10"/></g><g transform="translate(-198,-254) scale(1,1)"><g><path fill="none" stroke="none"/><text fill="#000000" stroke="none" font-family="Arial" font-size="13px" font-style="normal" font-weight="bold" text-decoration="none" x="1109.28369140625" y="1239.5">Archiver Livreur</text></g></g><g transform="translate(-198,-254) scale(1,1)"><path fill="none" stroke="#000000" d="M 726 341 L 722 391" stroke-miterlimit="10"/></g><g transform="translate(-198,-254) scale(1,1)"><path fill="#FFFFFF" stroke="none" d="M 715.2286263020883 370.0680030039361 L 722 391 L 732.0130727599517 371.4107587205651"/></g><g transform="translate(-198,-254) scale(1,1)"><path fill="none" stroke="#000000" d="M 715.2286263020883 370.0680030039361 L 722 391 L 732.0130727599517 371.4107587205651 L 715.2286263020883 370.0680030039361" stroke-miterlimit="10"/></g><g transform="translate(-198,-254) scale(1,1)"><path fill="none" stroke="#000000" d="M 874 363 L 797 391" stroke-miterlimit="10"/></g><g transform="translate(-198,-254) scale(1,1)"><path fill="#FFFFFF" stroke="none" d="M 813.2244830083754 376.1417985236793 L 797 391 L 818.9787769766104 391.96610693632584"/></g><g transform="translate(-198,-254) scale(1,1)"><path fill="none" stroke="#000000" d="M 813.2244830083754 376.1417985236793 L 797 391 L 818.9787769766104 391.96610693632584 L 813.2244830083754 376.1417985236793" stroke-miterlimit="10"/></g><g transform="translate(-198,-254) scale(1,1)"><path fill="none" stroke="#000000" d="M 879 418 L 825 418" stroke-miterlimit="10"/></g><g transform="translate(-198,-254) scale(1,1)"><path fill="#FFFFFF" stroke="none" d="M 845.3253497152483 409.580964487968 L 825 418 L 845.3253497152483 426.419035512032"/></g><g transform="translate(-198,-254) scale(1,1)"><path fill="none" stroke="#000000" d="M 845.3253497152483 409.580964487968 L 825 418 L 845.3253497152483 426.419035512032 L 845.3253497152483 409.580964487968" stroke-miterlimit="10"/></g><g transform="translate(-198,-254) scale(1,1)"><path fill="none" stroke="#000000" d="M 819 565 L 820 599" stroke-miterlimit="10"/></g><g transform="translate(-198,-254) scale(1,1)"><path fill="#FFFFFF" stroke="none" d="M 810.9870575733775 578.9309474858829 L 820 599 L 827.8178504164124 578.4359241669702"/></g><g transform="translate(-198,-254) scale(1,1)"><path fill="none" stroke="#000000" d="M 810.9870575733775 578.9309474858829 L 820 599 L 827.8178504164124 578.4359241669702 L 810.9870575733775 578.9309474858829" stroke-miterlimit="10"/></g><g transform="translate(-198,-254) scale(1,1)"><path fill="none" stroke="#000000" d="M 929 581 L 887 599" stroke-miterlimit="10"/></g><g transform="translate(-198,-254) scale(1,1)"><path fill="#FFFFFF" stroke="none" d="M 902.3655236105367 583.2551378483633 L 887 599 L 908.9983647377621 598.7317671452229"/></g><g transform="translate(-198,-254) scale(1,1)"><path fill="none" stroke="#000000" d="M 902.3655236105367 583.2551378483633 L 887 599 L 908.9983647377621 598.7317671452229 L 902.3655236105367 583.2551378483633" stroke-miterlimit="10"/></g><g transform="translate(-198,-254) scale(1,1)"><path fill="none" stroke="#000000" d="M 1031 632 L 932 630" stroke-miterlimit="10"/></g><g transform="translate(-198,-254) scale(1,1)"><path fill="#FFFFFF" stroke="none" d="M 952.4912502061756 621.9932113186428 L 932 630 L 952.1511565478924 638.8278474036616"/></g><g transform="translate(-198,-254) scale(1,1)"><path fill="none" stroke="#000000" d="M 952.4912502061756 621.9932113186428 L 932 630 L 952.1511565478924 638.8278474036616 L 952.4912502061756 621.9932113186428" stroke-miterlimit="10"/></g><g transform="translate(-198,-254) scale(1,1)"><path fill="none" stroke="#000000" d="M 907 741 L 882 815" stroke-miterlimit="10"/></g><g transform="translate(-198,-254) scale(1,1)"><path fill="#FFFFFF" stroke="none" d="M 880.5292983584525 793.0492133015341 L 882 815 L 896.4816070230243 798.4385067692948"/></g><g transform="translate(-198,-254) scale(1,1)"><path fill="none" stroke="#000000" d="M 880.5292983584525 793.0492133015341 L 882 815 L 896.4816070230243 798.4385067692948 L 880.5292983584525 793.0492133015341" stroke-miterlimit="10"/></g><g transform="translate(-198,-254) scale(1,1)"><path fill="none" stroke="#000000" d="M 1010 811 L 979 821" stroke-miterlimit="10"/></g><g transform="translate(-198,-254) scale(1,1)"><path fill="#FFFFFF" stroke="none" d="M 995.7591431765366 806.7475924844836 L 979 821 L 1000.928477789461 822.7725297845494"/></g><g transform="translate(-198,-254) scale(1,1)"><path fill="none" stroke="#000000" d="M 995.7591431765366 806.7475924844836 L 979 821 L 1000.928477789461 822.7725297845494 L 995.7591431765366 806.7475924844836" stroke-miterlimit="10"/></g><g transform="translate(-198,-254) scale(1,1)"><path fill="none" stroke="#000000" d="M 1039 868 L 979 863" stroke-miterlimit="10"/></g><g transform="translate(-198,-254) scale(1,1)"><path fill="#FFFFFF" stroke="none" d="M 999.9543038875769 856.2979742922694 L 979 863 L 998.5559781995721 873.0778825483263"/></g><g transform="translate(-198,-254) scale(1,1)"><path fill="none" stroke="#000000" d="M 999.9543038875769 856.2979742922694 L 979 863 L 998.5559781995721 873.0778825483263 L 999.9543038875769 856.2979742922694" stroke-miterlimit="10"/></g><g transform="translate(-198,-254) scale(1,1)"><path fill="none" stroke="#000000" d="M 883 981 L 866 1015" stroke-miterlimit="10"/></g><g transform="translate(-198,-254) scale(1,1)"><path fill="#FFFFFF" stroke="none" d="M 867.5595584419949 993.0553474061219 L 866 1015 L 882.6199870099056 1000.5855616900772"/></g><g transform="translate(-198,-254) scale(1,1)"><path fill="none" stroke="#000000" d="M 867.5595584419949 993.0553474061219 L 866 1015 L 882.6199870099056 1000.5855616900772 L 867.5595584419949 993.0553474061219" stroke-miterlimit="10"/></g><g transform="translate(-198,-254) scale(1,1)"><path fill="none" stroke="#000000" d="M 1009 995 L 929 1019" stroke-miterlimit="10"/></g><g transform="translate(-198,-254) scale(1,1)"><path fill="#FFFFFF" stroke="none" d="M 946.0489621606868 1005.0955802262923 L 929 1019 L 950.8873462664675 1021.2235272455614"/></g><g transform="translate(-198,-254) scale(1,1)"><path fill="none" stroke="#000000" d="M 946.0489621606868 1005.0955802262923 L 929 1019 L 950.8873462664675 1021.2235272455614 L 946.0489621606868 1005.0955802262923" stroke-miterlimit="10"/></g><g transform="translate(-198,-254) scale(1,1)"><path fill="none" stroke="#000000" d="M 1015 1053 L 929 1048" stroke-miterlimit="10"/></g><g transform="translate(-198,-254) scale(1,1)"><path fill="#FFFFFF" stroke="none" d="M 949.7797382592005 1040.774871774209 L 929 1048 L 948.8024309977612 1057.5845566709631"/></g><g transform="translate(-198,-254) scale(1,1)"><path fill="none" stroke="#000000" d="M 949.7797382592005 1040.774871774209 L 929 1048 L 948.8024309977612 1057.5845566709631 L 949.7797382592005 1040.774871774209" stroke-miterlimit="10"/></g><g transform="translate(-198,-254) scale(1,1)"><path fill="none" stroke="#000000" d="M 909 1149 L 880 1191" stroke-miterlimit="10"/></g><g transform="translate(-198,-254) scale(1,1)"><path fill="#FFFFFF" stroke="none" d="M 884.6206768007494 1169.4907148909356 L 880 1191 L 898.4766732585755 1179.057950540387"/></g><g transform="translate(-198,-254) scale(1,1)"><path fill="none" stroke="#000000" d="M 884.6206768007494 1169.4907148909356 L 880 1191 L 898.4766732585755 1179.057950540387 L 884.6206768007494 1169.4907148909356" stroke-miterlimit="10"/></g><g transform="translate(-198,-254) scale(1,1)"><path fill="none" stroke="#000000" d="M 1031 1169 L 947 1194" stroke-miterlimit="10"/></g><g transform="translate(-198,-254) scale(1,1)"><path fill="#FFFFFF" stroke="none" d="M 964.0793135352868 1180.132878843705 L 947 1194 L 968.8824338239642 1196.271363013661"/></g><g transform="translate(-198,-254) scale(1,1)"><path fill="none" stroke="#000000" d="M 964.0793135352868 1180.132878843705 L 947 1194 L 968.8824338239642 1196.271363013661 L 964.0793135352868 1180.132878843705" stroke-miterlimit="10"/></g><g transform="translate(-198,-254) scale(1,1)"><path fill="none" stroke="#000000" d="M 1071 1230 L 947 1223" stroke-miterlimit="10"/></g><g transform="translate(-198,-254) scale(1,1)"><path fill="#FFFFFF" stroke="none" d="M 967.7675533108998 1215.7399222126112 L 947 1223 L 966.8185280101948 1232.551227539386"/></g><g transform="translate(-198,-254) scale(1,1)"><path fill="none" stroke="#000000" d="M 967.7675533108998 1215.7399222126112 L 947 1223 L 966.8185280101948 1232.551227539386 L 967.7675533108998 1215.7399222126112" stroke-miterlimit="10"/></g><g transform="translate(-198,-254) scale(1,1)"><path fill="#C0C0C0" stroke="none" d="M 1319 1225 C 1319 1210.6405952 1347.6537728 1199 1383 1199 C 1418.3462272 1199 1447 1210.6405952 1447 1225 C 1447 1239.3594048 1418.3462272 1251 1383 1251 C 1347.6537728 1251 1319 1239.3594048 1319 1225 Z" opacity="0.2"/></g><g transform="translate(-198,-254) scale(1,1)"><path fill="#ffffff" stroke="none" d="M 1312 1218 C 1312 1203.6405952 1340.6537728 1192 1376 1192 C 1411.3462272 1192 1440 1203.6405952 1440 1218 C 1440 1232.3594048 1411.3462272 1244 1376 1244 C 1340.6537728 1244 1312 1232.3594048 1312 1218 Z"/></g><g transform="translate(-198,-254) scale(1,1)"><path fill="none" stroke="#000000" d="M 1312 1218 C 1312 1203.6405952 1340.6537728 1192 1376 1192 C 1411.3462272 1192 1440 1203.6405952 1440 1218 C 1440 1232.3594048 1411.3462272 1244 1376 1244 C 1340.6537728 1244 1312 1232.3594048 1312 1218 Z" stroke-miterlimit="10"/></g><g transform="translate(-198,-254) scale(1,1)"><g><path fill="none" stroke="none"/><text fill="#000000" stroke="none" font-family="Arial" font-size="13px" font-style="normal" font-weight="bold" text-decoration="none" x="1345.658203125" y="1217">Filtrer par</text><text fill="#000000" stroke="none" font-family="Arial" font-size="13px" font-style="normal" font-weight="bold" text-decoration="none" x="1343.484130859375" y="1230">catégories</text></g></g><g transform="translate(-198,-254) scale(1,1)"><path fill="#C0C0C0" stroke="none" d="M 1463 1265 C 1463 1250.6405952 1484.4903296 1239 1511 1239 C 1537.5096704 1239 1559 1250.6405952 1559 1265 C 1559 1279.3594048 1537.5096704 1291 1511 1291 C 1484.4903296 1291 1463 1279.3594048 1463 1265 Z" opacity="0.2"/></g><g transform="translate(-198,-254) scale(1,1)"><path fill="#ffffff" stroke="none" d="M 1456 1258 C 1456 1243.6405952 1477.4903296 1232 1504 1232 C 1530.5096704 1232 1552 1243.6405952 1552 1258 C 1552 1272.3594048 1530.5096704 1284 1504 1284 C 1477.4903296 1284 1456 1272.3594048 1456 1258 Z"/></g><g transform="translate(-198,-254) scale(1,1)"><path fill="none" stroke="#000000" d="M 1456 1258 C 1456 1243.6405952 1477.4903296 1232 1504 1232 C 1530.5096704 1232 1552 1243.6405952 1552 1258 C 1552 1272.3594048 1530.5096704 1284 1504 1284 C 1477.4903296 1284 1456 1272.3594048 1456 1258 Z" stroke-miterlimit="10"/></g><g transform="translate(-198,-254) scale(1,1)"><g><path fill="none" stroke="none"/><text fill="#000000" stroke="none" font-family="Arial" font-size="13px" font-style="normal" font-weight="bold" text-decoration="none" x="1485.5791015625" y="1257">Filtrer</text><text fill="#000000" stroke="none" font-family="Arial" font-size="13px" font-style="normal" font-weight="bold" text-decoration="none" x="1480.52001953125" y="1270">par état</text></g></g><g transform="translate(-198,-254) scale(1,1)"><path fill="#C0C0C0" stroke="none" d="M 1487 1353 C 1487 1338.6405952 1508.4903296 1327 1535 1327 C 1561.5096704 1327 1583 1338.6405952 1583 1353 C 1583 1367.3594048 1561.5096704 1379 1535 1379 C 1508.4903296 1379 1487 1367.3594048 1487 1353 Z" opacity="0.2"/></g><g transform="translate(-198,-254) scale(1,1)"><path fill="#ffffff" stroke="none" d="M 1480 1346 C 1480 1331.6405952 1501.4903296 1320 1528 1320 C 1554.5096704 1320 1576 1331.6405952 1576 1346 C 1576 1360.3594048 1554.5096704 1372 1528 1372 C 1501.4903296 1372 1480 1360.3594048 1480 1346 Z"/></g><g transform="translate(-198,-254) scale(1,1)"><path fill="none" stroke="#000000" d="M 1480 1346 C 1480 1331.6405952 1501.4903296 1320 1528 1320 C 1554.5096704 1320 1576 1331.6405952 1576 1346 C 1576 1360.3594048 1554.5096704 1372 1528 1372 C 1501.4903296 1372 1480 1360.3594048 1480 1346 Z" stroke-miterlimit="10"/></g><g transform="translate(-198,-254) scale(1,1)"><g><path fill="none" stroke="none"/><text fill="#000000" stroke="none" font-family="Arial" font-size="13px" font-style="normal" font-weight="bold" text-decoration="none" x="1509.5791015625" y="1345">Filtrer</text><text fill="#000000" stroke="none" font-family="Arial" font-size="13px" font-style="normal" font-weight="bold" text-decoration="none" x="1502.714111328125" y="1358">par date</text></g></g><g transform="translate(-198,-254) scale(1,1)"><path fill="#C0C0C0" stroke="none" d="M 1511 1417 C 1511 1402.6405952 1534.2811904 1391 1563 1391 C 1591.7188096 1391 1615 1402.6405952 1615 1417 C 1615 1431.3594048 1591.7188096 1443 1563 1443 C 1534.2811904 1443 1511 1431.3594048 1511 1417 Z" opacity="0.2"/></g><g transform="translate(-198,-254) scale(1,1)"><path fill="#ffffff" stroke="none" d="M 1504 1410 C 1504 1395.6405952 1527.2811904 1384 1556 1384 C 1584.7188096 1384 1608 1395.6405952 1608 1410 C 1608 1424.3594048 1584.7188096 1436 1556 1436 C 1527.2811904 1436 1504 1424.3594048 1504 1410 Z"/></g><g transform="translate(-198,-254) scale(1,1)"><path fill="none" stroke="#000000" d="M 1504 1410 C 1504 1395.6405952 1527.2811904 1384 1556 1384 C 1584.7188096 1384 1608 1395.6405952 1608 1410 C 1608 1424.3594048 1584.7188096 1436 1556 1436 C 1527.2811904 1436 1504 1424.3594048 1504 1410 Z" stroke-miterlimit="10"/></g><g transform="translate(-198,-254) scale(1,1)"><g><path fill="none" stroke="none"/><text fill="#000000" stroke="none" font-family="Arial" font-size="13px" font-style="normal" font-weight="bold" text-decoration="none" x="1525.658203125" y="1409">Filtrer par</text><text fill="#000000" stroke="none" font-family="Arial" font-size="13px" font-style="normal" font-weight="bold" text-decoration="none" x="1537.944091796875" y="1422">Client</text></g></g><g transform="translate(-198,-254) scale(1,1)"><path fill="none" stroke="#000000" d="M 1353 1245 L 1248 1367" stroke-miterlimit="10"/></g><g transform="translate(-198,-254) scale(1,1)"><path fill="#FFFFFF" stroke="none" d="M 1254.877613204167 1346.1026691509687 L 1248 1367 L 1267.6398512870933 1357.0865625829956"/></g><g transform="translate(-198,-254) scale(1,1)"><path fill="none" stroke="#000000" d="M 1254.877613204167 1346.1026691509687 L 1248 1367 L 1267.6398512870933 1357.0865625829956 L 1254.877613204167 1346.1026691509687" stroke-miterlimit="10"/></g><g transform="translate(-198,-254) scale(1,1)"><path fill="none" stroke="#000000" d="M 1455 1281 L 1271 1367" stroke-miterlimit="10"/></g><g transform="translate(-198,-254) scale(1,1)"><path fill="#FFFFFF" stroke="none" d="M 1285.848547163656 1350.7666809577127 L 1271 1367 L 1292.9781983661553 1366.0208184142234"/></g><g transform="translate(-198,-254) scale(1,1)"><path fill="none" stroke="#000000" d="M 1285.848547163656 1350.7666809577127 L 1271 1367 L 1292.9781983661553 1366.0208184142234 L 1285.848547163656 1350.7666809577127" stroke-miterlimit="10"/></g><g transform="translate(-198,-254) scale(1,1)"><path fill="none" stroke="#000000" d="M 1479 1352 L 1340 1371" stroke-miterlimit="10"/></g><g transform="translate(-198,-254) scale(1,1)"><path fill="#FFFFFF" stroke="none" d="M 1358.9978862571538 1359.9058430802406 L 1340 1371 L 1361.2782877901536 1376.5887806111346"/></g><g transform="translate(-198,-254) scale(1,1)"><path fill="none" stroke="#000000" d="M 1358.9978862571538 1359.9058430802406 L 1340 1371 L 1361.2782877901536 1376.5887806111346 L 1358.9978862571538 1359.9058430802406" stroke-miterlimit="10"/></g><g transform="translate(-198,-254) scale(1,1)"><path fill="none" stroke="#000000" d="M 1503 1406 L 1340 1393" stroke-miterlimit="10"/></g><g transform="translate(-198,-254) scale(1,1)"><path fill="#FFFFFF" stroke="none" d="M 1360.9303452219706 1386.2235223833372 L 1340 1393 L 1359.591682314332 1403.0082957637298"/></g><g transform="translate(-198,-254) scale(1,1)"><path fill="none" stroke="#000000" d="M 1360.9303452219706 1386.2235223833372 L 1340 1393 L 1359.591682314332 1403.0082957637298 L 1360.9303452219706 1386.2235223833372" stroke-miterlimit="10"/></g><g transform="translate(-198,-254) scale(1,1)"><path fill="none" stroke="#000000" d="M 822 1897 L 1007 1877" stroke-miterlimit="10" stroke-dasharray="3"/></g><g transform="translate(-198,-254) scale(1,1)"><path fill="none" stroke="#000000" d="M 997.3486437609038 1882.2774352431895 L 1007 1877 L 996.4437503079558 1873.9071708034203" stroke-miterlimit="10"/></g><g transform="translate(-198,-254) scale(1,1)"><g><path fill="none" stroke="none"/><text fill="#000000" stroke="none" font-family="Arial" font-size="13px" font-style="normal" font-weight="normal" text-decoration="none" x="887.5" y="1902">«include»</text></g></g><g transform="translate(-198,-254) scale(1,1)"><path fill="#C0C0C0" stroke="none" d="M 663 1770.5 C 663 1755.312168 718.9644 1743 788 1743 C 857.0356 1743 913 1755.312168 913 1770.5 C 913 1785.687832 857.0356 1798 788 1798 C 718.9644 1798 663 1785.687832 663 1770.5 Z" opacity="0.2"/></g><g transform="translate(-198,-254) scale(1,1)"><path fill="#ffffff" stroke="none" d="M 656 1763.5 C 656 1748.312168 711.9644 1736 781 1736 C 850.0356 1736 906 1748.312168 906 1763.5 C 906 1778.687832 850.0356 1791 781 1791 C 711.9644 1791 656 1778.687832 656 1763.5 Z"/></g><g transform="translate(-198,-254) scale(1,1)"><path fill="none" stroke="#000000" d="M 656 1763.5 C 656 1748.312168 711.9644 1736 781 1736 C 850.0356 1736 906 1748.312168 906 1763.5 C 906 1778.687832 850.0356 1791 781 1791 C 711.9644 1791 656 1778.687832 656 1763.5 Z" stroke-miterlimit="10"/></g><g transform="translate(-198,-254) scale(1,1)"><g><path fill="none" stroke="none"/><text fill="#000000" stroke="none" font-family="Arial" font-size="13px" font-style="normal" font-weight="bold" text-decoration="none" x="697.214111328125" y="1761.5">Changer Statut Commande</text></g></g><g transform="translate(-198,-254) scale(1,1)"><g><path fill="none" stroke="none"/><text fill="#000000" stroke="none" font-family="Arial" font-size="13px" font-style="normal" font-weight="normal" text-decoration="none" x="738.740478515625" y="1776.5">(from Analyse)</text></g></g><g transform="translate(-198,-254) scale(1,1)"><path fill="none" stroke="#000000" d="M 303 1462 L 737 1735" stroke-miterlimit="10"/></g><g transform="translate(-198,-254) scale(1,1)"><path fill="none" stroke="#000000" d="M 1159 2075 L 846 2075" stroke-miterlimit="10"/></g><g transform="translate(-198,-254) scale(1,1)"><path fill="#FFFFFF" stroke="none" d="M 866.3253497152483 2066.5809644879682 L 846 2075 L 866.3253497152483 2083.4190355120318"/></g><g transform="translate(-198,-254) scale(1,1)"><path fill="none" stroke="#000000" d="M 866.3253497152483 2066.5809644879682 L 846 2075 L 866.3253497152483 2083.4190355120318 L 866.3253497152483 2066.5809644879682" stroke-miterlimit="10"/></g><g transform="translate(-198,-254) scale(1,1)"><path fill="none" stroke="#000000" d="M 1103 2162 L 846 2103" stroke-miterlimit="10"/></g><g transform="translate(-198,-254) scale(1,1)"><path fill="#FFFFFF" stroke="none" d="M 867.6937971074402 2099.342245625904 L 846 2103 L 863.9262539661942 2115.753408122518"/></g><g transform="translate(-198,-254) scale(1,1)"><path fill="none" stroke="#000000" d="M 867.6937971074402 2099.342245625904 L 846 2103 L 863.9262539661942 2115.753408122518 L 867.6937971074402 2099.342245625904" stroke-miterlimit="10"/></g><g transform="translate(-198,-254) scale(1,1)"><path fill="none" stroke="#000000" d="M 1048 2239 L 780 2104" stroke-miterlimit="10"/></g><g transform="translate(-198,-254) scale(1,1)"><path fill="#FFFFFF" stroke="none" d="M 801.9399066752588 2105.62496002441 L 780 2104 L 794.3648365362582 2120.662877041093"/></g><g transform="translate(-198,-254) scale(1,1)"><path fill="none" stroke="#000000" d="M 801.9399066752588 2105.62496002441 L 780 2104 L 794.3648365362582 2120.662877041093 L 801.9399066752588 2105.62496002441" stroke-miterlimit="10"/></g><g transform="translate(-198,-254) scale(1,1)"><path fill="none" stroke="#000000" d="M 879 2247 L 748 2104" stroke-miterlimit="10"/></g><g transform="translate(-198,-254) scale(1,1)"><path fill="#FFFFFF" stroke="none" d="M 767.9375213464402 2113.3002818538066 L 748 2104 L 755.5216641783467 2124.674248909892"/></g><g transform="translate(-198,-254) scale(1,1)"><path fill="none" stroke="#000000" d="M 767.9375213464402 2113.3002818538066 L 748 2104 L 755.5216641783467 2124.674248909892 L 767.9375213464402 2113.3002818538066" stroke-miterlimit="10"/></g><g transform="translate(-198,-254) scale(1,1)"><path fill="none" stroke="#000000" d="M 677 2255 L 715 2104" stroke-miterlimit="10"/></g><g transform="translate(-198,-254) scale(1,1)"><path fill="#FFFFFF" stroke="none" d="M 718.2041441696229 2125.7654189056925 L 715 2104 L 701.8751967666586 2121.6561473738207"/></g><g transform="translate(-198,-254) scale(1,1)"><path fill="none" stroke="#000000" d="M 718.2041441696229 2125.7654189056925 L 715 2104 L 701.8751967666586 2121.6561473738207 L 718.2041441696229 2125.7654189056925" stroke-miterlimit="10"/></g><g transform="translate(-198,-254) scale(1,1)"><path fill="#C0C0C0" stroke="none" d="M 1983 1362.5 C 1983 1347.312168 2012.5492032 1335 2049 1335 C 2085.4507968 1335 2115 1347.312168 2115 1362.5 C 2115 1377.687832 2085.4507968 1390 2049 1390 C 2012.5492032 1390 1983 1377.687832 1983 1362.5 Z" opacity="0.2"/></g><g transform="translate(-198,-254) scale(1,1)"><path fill="#ffffff" stroke="none" d="M 1976 1355.5 C 1976 1340.312168 2005.5492032 1328 2042 1328 C 2078.4507968 1328 2108 1340.312168 2108 1355.5 C 2108 1370.687832 2078.4507968 1383 2042 1383 C 2005.5492032 1383 1976 1370.687832 1976 1355.5 Z"/></g><g transform="translate(-198,-254) scale(1,1)"><path fill="none" stroke="#000000" d="M 1976 1355.5 C 1976 1340.312168 2005.5492032 1328 2042 1328 C 2078.4507968 1328 2108 1340.312168 2108 1355.5 C 2108 1370.687832 2078.4507968 1383 2042 1383 C 2005.5492032 1383 1976 1370.687832 1976 1355.5 Z" stroke-miterlimit="10"/></g><g transform="translate(-198,-254) scale(1,1)"><g><path fill="none" stroke="none"/><text fill="#000000" stroke="none" font-family="Arial" font-size="13px" font-style="normal" font-weight="bold" text-decoration="none" x="2001.17822265625" y="1353.5">Se connecter</text></g></g><g transform="translate(-198,-254) scale(1,1)"><g><path fill="none" stroke="none"/><text fill="#000000" stroke="none" font-family="Arial" font-size="13px" font-style="normal" font-weight="normal" text-decoration="none" x="1999.740478515625" y="1368.5">(from Analyse)</text></g></g><g transform="translate(-198,-254) scale(1,1)"><path fill="none" stroke="#000000" d="M 825 403 L 1216 344 L 2019 1327" stroke-miterlimit="10" stroke-dasharray="3"/></g><g transform="translate(-198,-254) scale(1,1)"><path fill="none" stroke="#000000" d="M 2009.3106615152292 1321.7926283282698 L 2019 1327 L 2015.830770873446 1316.4664352309676" stroke-miterlimit="10"/></g><g transform="translate(-198,-254) scale(1,1)"><g><path fill="none" stroke="none"/><text fill="#000000" stroke="none" font-family="Arial" font-size="13px" font-style="normal" font-weight="normal" text-decoration="none" x="1211.5" y="330">«include»</text></g></g><g transform="translate(-198,-254) scale(1,1)"><path fill="none" stroke="#000000" d="M 932 610 L 1248 560 L 2014 1327" stroke-miterlimit="10" stroke-dasharray="3"/></g><g transform="translate(-198,-254) scale(1,1)"><path fill="none" stroke="#000000" d="M 2003.8400732385896 1322.7838538684273 L 2014 1327 L 2009.7971124107567 1316.8345813705394" stroke-miterlimit="10"/></g><g transform="translate(-198,-254) scale(1,1)"><g><path fill="none" stroke="none"/><text fill="#000000" stroke="none" font-family="Arial" font-size="13px" font-style="normal" font-weight="normal" text-decoration="none" x="1431.5" y="738">«include»</text></g></g><g transform="translate(-198,-254) scale(1,1)"><path fill="none" stroke="#000000" d="M 979 843 L 1144 824 L 1320 888 L 1999 1327" stroke-miterlimit="10" stroke-dasharray="3"/></g><g transform="translate(-198,-254) scale(1,1)"><path fill="none" stroke="#000000" d="M 1988.1801682131445 1325.0172644896124 L 1999 1327 L 1992.751229296911 1317.9472178475223" stroke-miterlimit="10"/></g><g transform="translate(-198,-254) scale(1,1)"><g><path fill="none" stroke="none"/><text fill="#000000" stroke="none" font-family="Arial" font-size="13px" font-style="normal" font-weight="normal" text-decoration="none" x="1342.5" y="907">«include»</text></g></g><g transform="translate(-198,-254) scale(1,1)"><path fill="none" stroke="#000000" d="M 929 1036 L 1232 1008 L 1977 1327" stroke-miterlimit="10" stroke-dasharray="3"/></g><g transform="translate(-198,-254) scale(1,1)"><path fill="none" stroke="#000000" d="M 1966.0007747489703 1326.8694477992872 L 1977 1327 L 1969.3146875836214 1319.1300588907757" stroke-miterlimit="10"/></g><g transform="translate(-198,-254) scale(1,1)"><g><path fill="none" stroke="none"/><text fill="#000000" stroke="none" font-family="Arial" font-size="13px" font-style="normal" font-weight="normal" text-decoration="none" x="1199.5" y="1035">«include»</text></g></g><g transform="translate(-198,-254) scale(1,1)"><path fill="none" stroke="#000000" d="M 947 1210 L 1120 1192 L 1352 1144 L 1975 1335" stroke-miterlimit="10" stroke-dasharray="3"/></g><g transform="translate(-198,-254) scale(1,1)"><path fill="none" stroke="#000000" d="M 1964.0498254050744 1336.045789816668 L 1975 1335 L 1966.5175722176896 1327.9965423598132" stroke-miterlimit="10"/></g><g transform="translate(-198,-254) scale(1,1)"><g><path fill="none" stroke="none"/><text fill="#000000" stroke="none" font-family="Arial" font-size="13px" font-style="normal" font-weight="normal" text-decoration="none" x="1271.5" y="1143">«include»</text></g></g><g transform="translate(-198,-254) scale(1,1)"><path fill="none" stroke="#000000" d="M 969 1424 L 1232 1512 L 1632 1464 L 1975 1373" stroke-miterlimit="10" stroke-dasharray="3"/></g><g transform="translate(-198,-254) scale(1,1)"><path fill="none" stroke="#000000" d="M 1966.2566155763745 1379.674820508501 L 1975 1373 L 1964.0976827387697 1371.5373044282976" stroke-miterlimit="10"/></g><g transform="translate(-198,-254) scale(1,1)"><g><path fill="none" stroke="none"/><text fill="#000000" stroke="none" font-family="Arial" font-size="13px" font-style="normal" font-weight="normal" text-decoration="none" x="1270.5" y="1491">«include»</text></g></g><g transform="translate(-198,-254) scale(1,1)"><path fill="none" stroke="#000000" d="M 894 1735 L 1472 1592 L 1975 1383" stroke-miterlimit="10" stroke-dasharray="3"/></g><g transform="translate(-198,-254) scale(1,1)"><path fill="none" stroke="#000000" d="M 1967.2304131805633 1390.7867528954782 L 1975 1383 L 1964.0000066971422 1383.0121382487753" stroke-miterlimit="10"/></g><g transform="translate(-198,-254) scale(1,1)"><g><path fill="none" stroke="none"/><text fill="#000000" stroke="none" font-family="Arial" font-size="13px" font-style="normal" font-weight="normal" text-decoration="none" x="1432.5" y="1569">«include»</text></g></g><g transform="translate(-198,-254) scale(1,1)"><path fill="none" stroke="#000000" d="M 822 1885 L 1088 1824 L 1600 1720 L 2007 1384" stroke-miterlimit="10" stroke-dasharray="3"/></g><g transform="translate(-198,-254) scale(1,1)"><path fill="none" stroke="#000000" d="M 2001.8428444158308 1393.7161590291983 L 2007 1384 L 1996.4829783781668 1387.2237022514328" stroke-miterlimit="10"/></g><g transform="translate(-198,-254) scale(1,1)"><g><path fill="none" stroke="none"/><text fill="#000000" stroke="none" font-family="Arial" font-size="13px" font-style="normal" font-weight="normal" text-decoration="none" x="1310.5" y="1747">«include»</text></g></g><g transform="translate(-198,-254) scale(1,1)"><path fill="none" stroke="#000000" d="M 846 2061 L 1448 1992 L 2015 1384" stroke-miterlimit="10" stroke-dasharray="3"/></g><g transform="translate(-198,-254) scale(1,1)"><path fill="none" stroke="#000000" d="M 2011.1474393854382 1394.303289606292 L 2015 1384 L 2004.9903023153731 1388.561354213649" stroke-miterlimit="10"/></g><g transform="translate(-198,-254) scale(1,1)"><g><path fill="none" stroke="none"/><text fill="#000000" stroke="none" font-family="Arial" font-size="13px" font-style="normal" font-weight="normal" text-decoration="none" x="1398.5" y="1976">«include»</text></g></g><g transform="translate(-198,-254) scale(1,1)"><path fill="#C0C0C0" stroke="none" d="M 671 1562.5 C 671 1547.312168 712.8613712 1535 764.5 1535 C 816.1386288 1535 858 1547.312168 858 1562.5 C 858 1577.687832 816.1386288 1590 764.5 1590 C 712.8613712 1590 671 1577.687832 671 1562.5 Z" opacity="0.2"/></g><g transform="translate(-198,-254) scale(1,1)"><path fill="#ffffff" stroke="none" d="M 664 1555.5 C 664 1540.312168 705.8613712 1528 757.5 1528 C 809.1386288 1528 851 1540.312168 851 1555.5 C 851 1570.687832 809.1386288 1583 757.5 1583 C 705.8613712 1583 664 1570.687832 664 1555.5 Z"/></g><g transform="translate(-198,-254) scale(1,1)"><path fill="none" stroke="#000000" d="M 664 1555.5 C 664 1540.312168 705.8613712 1528 757.5 1528 C 809.1386288 1528 851 1540.312168 851 1555.5 C 851 1570.687832 809.1386288 1583 757.5 1583 C 705.8613712 1583 664 1570.687832 664 1555.5 Z" stroke-miterlimit="10"/></g><g transform="translate(-198,-254) scale(1,1)"><g><path fill="none" stroke="none"/><text fill="#000000" stroke="none" font-family="Arial" font-size="13px" font-style="normal" font-weight="bold" text-decoration="none" x="695.74365234375" y="1553.5">Annuler Commande</text></g></g><g transform="translate(-198,-254) scale(1,1)"><g><path fill="none" stroke="none"/><text fill="#000000" stroke="none" font-family="Arial" font-size="13px" font-style="normal" font-weight="normal" text-decoration="none" x="715.240478515625" y="1568.5">(from Analyse)</text></g></g><g transform="translate(-198,-254) scale(1,1)"><path fill="none" stroke="#000000" d="M 303 1443 L 663 1532" stroke-miterlimit="10"/></g><g transform="translate(-198,-254) scale(1,1)"><path fill="none" stroke="#000000" d="M 852 1566 L 1232 1608 L 1975 1376" stroke-miterlimit="10" stroke-dasharray="3"/></g><g transform="translate(-198,-254) scale(1,1)"><path fill="none" stroke="#000000" d="M 1966.5539036803993 1383.047230446071 L 1975 1376 L 1964.0445635808546 1375.0108524548566" stroke-miterlimit="10"/></g><g transform="translate(-198,-254) scale(1,1)"><g><path fill="none" stroke="none"/><text fill="#000000" stroke="none" font-family="Arial" font-size="13px" font-style="normal" font-weight="normal" text-decoration="none" x="1195.5" y="1584">«include»</text></g></g><g transform="translate(-198,-254) scale(1,1)"><path fill="#C0C0C0" stroke="none" d="M 1191 688 C 1191 669.7746016 1223.2354944 655 1263 655 C 1302.7645056 655 1335 669.7746016 1335 688 C 1335 706.2253984 1302.7645056 721 1263 721 C 1223.2354944 721 1191 706.2253984 1191 688 Z" opacity="0.2"/></g><g transform="translate(-198,-254) scale(1,1)"><path fill="#ffffff" stroke="none" d="M 1184 681 C 1184 662.7746016 1216.2354944 648 1256 648 C 1295.7645056 648 1328 662.7746016 1328 681 C 1328 699.2253984 1295.7645056 714 1256 714 C 1216.2354944 714 1184 699.2253984 1184 681 Z"/></g><g transform="translate(-198,-254) scale(1,1)"><path fill="none" stroke="#000000" d="M 1184 681 C 1184 662.7746016 1216.2354944 648 1256 648 C 1295.7645056 648 1328 662.7746016 1328 681 C 1328 699.2253984 1295.7645056 714 1256 714 C 1216.2354944 714 1184 699.2253984 1184 681 Z" stroke-miterlimit="10"/></g><g transform="translate(-198,-254) scale(1,1)"><path fill="none" stroke="#000000" d="M 1184 719 L 1328 719" stroke-miterlimit="10"/></g><g transform="translate(-198,-254) scale(1,1)"><g><path fill="none" stroke="none"/><text fill="#000000" stroke="none" font-family="Arial" font-size="13px" font-style="normal" font-weight="bold" text-decoration="none" x="1228.5400390625" y="676">Associer</text><text fill="#000000" stroke="none" font-family="Arial" font-size="13px" font-style="normal" font-weight="bold" text-decoration="none" x="1229.27001953125" y="689">Burger à</text><text fill="#000000" stroke="none" font-family="Arial" font-size="13px" font-style="normal" font-weight="bold" text-decoration="none" x="1239.029541015625" y="702">Menu</text></g></g><g transform="translate(-198,-254) scale(1,1)"><g><path fill="none" stroke="none"/><text fill="#000000" stroke="none" font-family="Arial" font-size="13px" font-style="normal" font-weight="normal" text-decoration="none" x="1189" y="735">Si Burger n'existe pas</text></g></g><g transform="translate(-198,-254) scale(1,1)"><path fill="#C0C0C0" stroke="none" d="M 1263 814 C 1263 788.0426144 1304.1897984 767 1355 767 C 1405.8102016 767 1447 788.0426144 1447 814 C 1447 839.9573856 1405.8102016 861 1355 861 C 1304.1897984 861 1263 839.9573856 1263 814 Z" opacity="0.2"/></g><g transform="translate(-198,-254) scale(1,1)"><path fill="#ffffff" stroke="none" d="M 1256 807 C 1256 781.0426144 1297.1897984 760 1348 760 C 1398.8102016 760 1440 781.0426144 1440 807 C 1440 832.9573856 1398.8102016 854 1348 854 C 1297.1897984 854 1256 832.9573856 1256 807 Z"/></g><g transform="translate(-198,-254) scale(1,1)"><path fill="none" stroke="#000000" d="M 1256 807 C 1256 781.0426144 1297.1897984 760 1348 760 C 1398.8102016 760 1440 781.0426144 1440 807 C 1440 832.9573856 1398.8102016 854 1348 854 C 1297.1897984 854 1256 832.9573856 1256 807 Z" stroke-miterlimit="10"/></g><g transform="translate(-198,-254) scale(1,1)"><g><path fill="none" stroke="none"/><text fill="#000000" stroke="none" font-family="Arial" font-size="13px" font-style="normal" font-weight="bold" text-decoration="none" x="1320.5400390625" y="799.5">Associer</text><text fill="#000000" stroke="none" font-family="Arial" font-size="13px" font-style="normal" font-weight="bold" text-decoration="none" x="1299.59912109375" y="812.5">Compléments à</text><text fill="#000000" stroke="none" font-family="Arial" font-size="13px" font-style="normal" font-weight="bold" text-decoration="none" x="1331.029541015625" y="825.5">Menu</text></g></g><g transform="translate(-198,-254) scale(1,1)"><path fill="none" stroke="#000000" d="M 993 710 L 1183 699" stroke-miterlimit="10" stroke-dasharray="3"/></g><g transform="translate(-198,-254) scale(1,1)"><path fill="none" stroke="#000000" d="M 1173.0976155909982 703.7898625258307 L 1183 699 L 1172.6110125615126 695.384901107445" stroke-miterlimit="10"/></g><g transform="translate(-198,-254) scale(1,1)"><g><path fill="none" stroke="none"/><text fill="#000000" stroke="none" font-family="Arial" font-size="13px" font-style="normal" font-weight="normal" text-decoration="none" x="1039.5" y="696">«include»</text></g></g><g transform="translate(-198,-254) scale(1,1)"><path fill="none" stroke="#000000" d="M 993 731 L 1255 787" stroke-miterlimit="10" stroke-dasharray="3"/></g><g transform="translate(-198,-254) scale(1,1)"><path fill="none" stroke="#000000" d="M 1244.181932860558 788.9923411772394 L 1255 787 L 1245.941673409506 780.7592693232323" stroke-miterlimit="10"/></g><g transform="translate(-198,-254) scale(1,1)"><g><path fill="none" stroke="none"/><text fill="#000000" stroke="none" font-family="Arial" font-size="13px" font-style="normal" font-weight="normal" text-decoration="none" x="1083.5" y="748">«include»</text></g></g><g transform="translate(-198,-254) scale(1,1)"><path fill="#C0C0C0" stroke="none" d="M 1167 937 C 1167 922.6405952 1201.0263552 911 1243 911 C 1284.9736448 911 1319 922.6405952 1319 937 C 1319 951.3594048 1284.9736448 963 1243 963 C 1201.0263552 963 1167 951.3594048 1167 937 Z" opacity="0.2"/></g><g transform="translate(-198,-254) scale(1,1)"><path fill="#ffffff" stroke="none" d="M 1160 930 C 1160 915.6405952 1194.0263552 904 1236 904 C 1277.9736448 904 1312 915.6405952 1312 930 C 1312 944.3594048 1277.9736448 956 1236 956 C 1194.0263552 956 1160 944.3594048 1160 930 Z"/></g><g transform="translate(-198,-254) scale(1,1)"><path fill="none" stroke="#000000" d="M 1160 930 C 1160 915.6405952 1194.0263552 904 1236 904 C 1277.9736448 904 1312 915.6405952 1312 930 C 1312 944.3594048 1277.9736448 956 1236 956 C 1194.0263552 956 1160 944.3594048 1160 930 Z" stroke-miterlimit="10"/></g><g transform="translate(-198,-254) scale(1,1)"><g><path fill="none" stroke="none"/><text fill="#000000" stroke="none" font-family="Arial" font-size="13px" font-style="normal" font-weight="bold" text-decoration="none" x="1213.25" y="929">Ajouter</text><text fill="#000000" stroke="none" font-family="Arial" font-size="13px" font-style="normal" font-weight="bold" text-decoration="none" x="1207.09912109375" y="942">Quartiers</text></g></g><g transform="translate(-198,-254) scale(1,1)"><path fill="none" stroke="#000000" d="M 969 949 L 1159 935" stroke-miterlimit="10" stroke-dasharray="3"/></g><g transform="translate(-198,-254) scale(1,1)"><path fill="none" stroke="#000000" d="M 1149.1741381119616 939.9449406626566 L 1159 935 L 1148.555465352836 931.5486675030952" stroke-miterlimit="10"/></g><g transform="translate(-198,-254) scale(1,1)"><g><path fill="none" stroke="none"/><text fill="#000000" stroke="none" font-family="Arial" font-size="13px" font-style="normal" font-weight="normal" text-decoration="none" x="1015.5" y="938">«include»</text></g></g><g transform="translate(-198,-254) scale(1,1)"><path fill="none" stroke="#000000" d="M 1239 647 L 1120 304 L 809 312" stroke-miterlimit="10" stroke-dasharray="3"/></g><g transform="translate(-198,-254) scale(1,1)"><path fill="none" stroke="#000000" d="M 819.0510666120512 307.5305414242764 L 809 312 L 819.2675618266657 315.9467928924126" stroke-miterlimit="10"/></g><g transform="translate(-198,-254) scale(1,1)"><g><path fill="none" stroke="none"/><text fill="#000000" stroke="none" font-family="Arial" font-size="13px" font-style="normal" font-weight="normal" text-decoration="none" x="1079.5" y="298">«extend»</text></g></g><g transform="translate(-198,-254) scale(1,1)"><path fill="none" stroke="#000000" d="M 1349 759 L 1352 592 L 1312 496 L 1144 472 L 901 521" stroke-miterlimit="10" stroke-dasharray="3"/></g><g transform="translate(-198,-254) scale(1,1)"><path fill="none" stroke="#000000" d="M 910.1300719290366 514.8647097403123 L 901 521 L 911.7942411209157 523.1176304265698" stroke-miterlimit="10"/></g><g transform="translate(-198,-254) scale(1,1)"><g><path fill="none" stroke="none"/><text fill="#000000" stroke="none" font-family="Arial" font-size="13px" font-style="normal" font-weight="normal" text-decoration="none" x="1223.5" y="482">«extend»</text></g></g><g transform="translate(-198,-254) scale(1,1)"><path fill="#C0C0C0" stroke="none" d="M 575 2490.5 C 575 2475.312168 605.6684912 2463 643.5 2463 C 681.3315088 2463 712 2475.312168 712 2490.5 C 712 2505.687832 681.3315088 2518 643.5 2518 C 605.6684912 2518 575 2505.687832 575 2490.5 Z" opacity="0.2"/></g><g transform="translate(-198,-254) scale(1,1)"><path fill="#ffffff" stroke="none" d="M 568 2483.5 C 568 2468.312168 598.6684912 2456 636.5 2456 C 674.3315088 2456 705 2468.312168 705 2483.5 C 705 2498.687832 674.3315088 2511 636.5 2511 C 598.6684912 2511 568 2498.687832 568 2483.5 Z"/></g><g transform="translate(-198,-254) scale(1,1)"><path fill="none" stroke="#000000" d="M 568 2483.5 C 568 2468.312168 598.6684912 2456 636.5 2456 C 674.3315088 2456 705 2468.312168 705 2483.5 C 705 2498.687832 674.3315088 2511 636.5 2511 C 598.6684912 2511 568 2498.687832 568 2483.5 Z" stroke-miterlimit="10"/></g><g transform="translate(-198,-254) scale(1,1)"><g><path fill="none" stroke="none"/><text fill="#000000" stroke="none" font-family="Arial" font-size="13px" font-style="normal" font-weight="bold" text-decoration="none" x="592.5615234375" y="2481.5">Voir son Profil</text></g></g><g transform="translate(-198,-254) scale(1,1)"><g><path fill="none" stroke="none"/><text fill="#000000" stroke="none" font-family="Arial" font-size="13px" font-style="normal" font-weight="normal" text-decoration="none" x="594.240478515625" y="2496.5">(from Analyse)</text></g></g><g transform="translate(-198,-254) scale(1,1)"><path fill="none" stroke="#000000" d="M 626 2455 L 271 1479" stroke-miterlimit="10"/></g><g transform="translate(-198,-254) scale(1,1)"><path fill="none" stroke="#000000" d="M 706 2477 L 1712 2384 L 2033 1384" stroke-miterlimit="10" stroke-dasharray="3"/></g><g transform="translate(-198,-254) scale(1,1)"><path fill="none" stroke="#000000" d="M 2033.9019683723657 1394.9629582255545 L 2033 1384 L 2025.8858058493613 1392.38977005567" stroke-miterlimit="10"/></g><g transform="translate(-198,-254) scale(1,1)"><g><path fill="none" stroke="none"/><text fill="#000000" stroke="none" font-family="Arial" font-size="13px" font-style="normal" font-weight="normal" text-decoration="none" x="1655.5" y="2379">«include»</text></g></g></g></svg>