<svg version="1.1" xmlns="http://www.w3.org/2000/svg" xmlns:xlink="http://www.w3.org/1999/xlink" width="1348" height="972"><defs/><g><g transform="translate(-294,-118) scale(1,1)"><rect fill="#C0C0C0" stroke="none" x="617" y="135" width="1022" height="952" opacity="0.2"/></g><g transform="translate(-294,-118) scale(1,1)"><rect fill="#ffffff" stroke="none" x="610" y="128" width="1022" height="952"/></g><g transform="translate(-294,-118) scale(1,1)"><path fill="none" stroke="#000000" d="M 610 128 L 1632 128 L 1632 1080 L 610 1080 L 610 128 Z Z" stroke-miterlimit="10"/></g><g transform="translate(-294,-118) scale(1,1)"><g><path fill="none" stroke="none"/><text fill="#000000" stroke="none" font-family="Arial" font-size="13px" font-style="normal" font-weight="bold" text-decoration="none" x="1088.490478515625" y="146">GestResto</text></g></g><g transform="translate(-294,-118) scale(1,1)"><g><path fill="none" stroke="none"/><text fill="#000000" stroke="none" font-family="Arial" font-size="13px" font-style="normal" font-weight="normal" text-decoration="none" x="1078.740478515625" y="161">(from Analyse)</text></g></g><g transform="translate(-294,-118) scale(1,1)"><path fill="#ffffff" stroke="none" d="M 342.08024875710225 481.68 C 342.08024875710225 476.886167936 345.96609108204774 473 350.759521484375 473 C 355.55295188670226 473 359.43879421164775 476.886167936 359.43879421164775 481.68 C 359.43879421164775 486.473832064 355.55295188670226 490.36 350.759521484375 490.36 C 345.96609108204774 490.36 342.08024875710225 486.473832064 342.08024875710225 481.68 Z"/></g><g transform="translate(-294,-118) scale(1,1)"><path fill="none" stroke="#000000" d="M 342.08024875710225 481.68 C 342.08024875710225 476.886167936 345.96609108204774 473 350.759521484375 473 C 355.55295188670226 473 359.43879421164775 476.886167936 359.43879421164775 481.68 C 359.43879421164775 486.473832064 355.55295188670226 490.36 350.759521484375 490.36 C 345.96609108204774 490.36 342.08024875710225 486.473832064 342.08024875710225 481.68 Z" stroke-miterlimit="10"/></g><g transform="translate(-294,-118) scale(1,1)"><path fill="none" stroke="#000000" d="M 350.759521484375 490.36 L 350.759521484375 507.64" stroke-miterlimit="10"/></g><g transform="translate(-294,-118) scale(1,1)"><path fill="none" stroke="#000000" d="M 341.56970330255683 496.84 L 359.94933966619317 496.84" stroke-miterlimit="10"/></g><g transform="translate(-294,-118) scale(1,1)"><path fill="none" stroke="#000000" d="M 350.759521484375 507.64 L 337.99588512073865 525" stroke-miterlimit="10"/></g><g transform="translate(-294,-118) scale(1,1)"><path fill="none" stroke="#000000" d="M 350.759521484375 507.64 L 363.52315784801135 525" stroke-miterlimit="10"/></g><g transform="translate(-294,-118) scale(1,1)"><g><path fill="none" stroke="none"/><text fill="#ff0000" stroke="none" font-family="Arial" font-size="13px" font-style="normal" font-weight="bold" text-decoration="none" x="332.70361328125" y="544">Client</text></g></g><g transform="translate(-294,-118) scale(1,1)"><g><path fill="none" stroke="none"/><text fill="#ff0000" stroke="none" font-family="Arial" font-size="13px" font-style="normal" font-weight="normal" text-decoration="none" x="308.5" y="559">(from Analyse)</text></g></g><g transform="translate(-294,-118) scale(1,1)"><path fill="#C0C0C0" stroke="none" d="M 655 226.5 C 655 211.31216799999999 702.6816688 199 761.5 199 C 820.3183312 199 868 211.31216799999999 868 226.5 C 868 241.68783200000001 820.3183312 254 761.5 254 C 702.6816688 254 655 241.68783200000001 655 226.5 Z" opacity="0.2"/></g><g transform="translate(-294,-118) scale(1,1)"><path fill="#ffffff" stroke="none" d="M 648 219.5 C 648 204.31216799999999 695.6816688 192 754.5 192 C 813.3183312 192 861 204.31216799999999 861 219.5 C 861 234.68783200000001 813.3183312 247 754.5 247 C 695.6816688 247 648 234.68783200000001 648 219.5 Z"/></g><g transform="translate(-294,-118) scale(1,1)"><path fill="none" stroke="#000000" d="M 648 219.5 C 648 204.31216799999999 695.6816688 192 754.5 192 C 813.3183312 192 861 204.31216799999999 861 219.5 C 861 234.68783200000001 813.3183312 247 754.5 247 C 695.6816688 247 648 234.68783200000001 648 219.5 Z" stroke-miterlimit="10"/></g><g transform="translate(-294,-118) scale(1,1)"><g><path fill="none" stroke="none"/><text fill="#000000" stroke="none" font-family="Arial" font-size="13px" font-style="normal" font-weight="bold" text-decoration="none" x="683.7109375" y="217.5">Consulter le Catalogue</text></g></g><g transform="translate(-294,-118) scale(1,1)"><g><path fill="none" stroke="none"/><text fill="#000000" stroke="none" font-family="Arial" font-size="13px" font-style="normal" font-weight="normal" text-decoration="none" x="712.240478515625" y="232.5">(from Analyse)</text></g></g><g transform="translate(-294,-118) scale(1,1)"><path fill="none" stroke="#000000" d="M 399 483 L 715 248" stroke-miterlimit="10"/></g><g transform="translate(-294,-118) scale(1,1)"><path fill="#C0C0C0" stroke="none" d="M 639 456 C 639 442.19288 687.3532416 431 747 431 C 806.6467584 431 855 442.19288 855 456 C 855 469.80712 806.6467584 481 747 481 C 687.3532416 481 639 469.80712 639 456 Z" opacity="0.2"/></g><g transform="translate(-294,-118) scale(1,1)"><path fill="#ffffff" stroke="none" d="M 632 449 C 632 435.19288 680.3532416 424 740 424 C 799.6467584 424 848 435.19288 848 449 C 848 462.80712 799.6467584 474 740 474 C 680.3532416 474 632 462.80712 632 449 Z"/></g><g transform="translate(-294,-118) scale(1,1)"><path fill="none" stroke="#000000" d="M 632 449 C 632 435.19288 680.3532416 424 740 424 C 799.6467584 424 848 435.19288 848 449 C 848 462.80712 799.6467584 474 740 474 C 680.3532416 474 632 462.80712 632 449 Z" stroke-miterlimit="10"/></g><g transform="translate(-294,-118) scale(1,1)"><path fill="none" stroke="#000000" d="M 632 479 L 848 479" stroke-miterlimit="10"/></g><g transform="translate(-294,-118) scale(1,1)"><g><path fill="none" stroke="none"/><text fill="#000000" stroke="none" font-family="Arial" font-size="13px" font-style="normal" font-weight="bold" text-decoration="none" x="668.11279296875" y="449.5">Passer une Commande</text></g></g><g transform="translate(-294,-118) scale(1,1)"><g><path fill="none" stroke="none"/><text fill="#000000" stroke="none" font-family="Arial" font-size="13px" font-style="normal" font-weight="normal" text-decoration="none" x="697.740478515625" y="464.5">(from Analyse)</text></g></g><g transform="translate(-294,-118) scale(1,1)"><g><path fill="none" stroke="none"/><text fill="#000000" stroke="none" font-family="Arial" font-size="13px" font-style="normal" font-weight="normal" text-decoration="none" x="637" y="495">Si commande est Burger</text></g></g><g transform="translate(-294,-118) scale(1,1)"><path fill="none" stroke="#000000" d="M 399 512 L 631 479" stroke-miterlimit="10"/></g><g transform="translate(-294,-118) scale(1,1)"><path fill="#C0C0C0" stroke="none" d="M 639 698.5 C 639 683.312168 688.2486719999999 671 749 671 C 809.7513280000001 671 859 683.312168 859 698.5 C 859 713.687832 809.7513280000001 726 749 726 C 688.2486719999999 726 639 713.687832 639 698.5 Z" opacity="0.2"/></g><g transform="translate(-294,-118) scale(1,1)"><path fill="#ffffff" stroke="none" d="M 632 691.5 C 632 676.312168 681.2486719999999 664 742 664 C 802.7513280000001 664 852 676.312168 852 691.5 C 852 706.687832 802.7513280000001 719 742 719 C 681.2486719999999 719 632 706.687832 632 691.5 Z"/></g><g transform="translate(-294,-118) scale(1,1)"><path fill="none" stroke="#000000" d="M 632 691.5 C 632 676.312168 681.2486719999999 664 742 664 C 802.7513280000001 664 852 676.312168 852 691.5 C 852 706.687832 802.7513280000001 719 742 719 C 681.2486719999999 719 632 706.687832 632 691.5 Z" stroke-miterlimit="10"/></g><g transform="translate(-294,-118) scale(1,1)"><g><path fill="none" stroke="none"/><text fill="#000000" stroke="none" font-family="Arial" font-size="13px" font-style="normal" font-weight="bold" text-decoration="none" x="668.662353515625" y="689.5">Suivre ses Commandes</text></g></g><g transform="translate(-294,-118) scale(1,1)"><g><path fill="none" stroke="none"/><text fill="#000000" stroke="none" font-family="Arial" font-size="13px" font-style="normal" font-weight="normal" text-decoration="none" x="699.740478515625" y="704.5">(from Analyse)</text></g></g><g transform="translate(-294,-118) scale(1,1)"><path fill="none" stroke="#000000" d="M 399 540 L 678 663" stroke-miterlimit="10"/></g><g transform="translate(-294,-118) scale(1,1)"><path fill="#C0C0C0" stroke="none" d="M 1047 208 C 1047 198.6111584 1087.0705104 191 1136.5 191 C 1185.9294896 191 1226 198.6111584 1226 208 C 1226 217.3888416 1185.9294896 225 1136.5 225 C 1087.0705104 225 1047 217.3888416 1047 208 Z" opacity="0.2"/></g><g transform="translate(-294,-118) scale(1,1)"><path fill="#ffffff" stroke="none" d="M 1040 201 C 1040 191.6111584 1080.0705104 184 1129.5 184 C 1178.9294896 184 1219 191.6111584 1219 201 C 1219 210.3888416 1178.9294896 218 1129.5 218 C 1080.0705104 218 1040 210.3888416 1040 201 Z"/></g><g transform="translate(-294,-118) scale(1,1)"><path fill="none" stroke="#000000" d="M 1040 201 C 1040 191.6111584 1080.0705104 184 1129.5 184 C 1178.9294896 184 1219 191.6111584 1219 201 C 1219 210.3888416 1178.9294896 218 1129.5 218 C 1080.0705104 218 1040 210.3888416 1040 201 Z" stroke-miterlimit="10"/></g><g transform="translate(-294,-118) scale(1,1)"><g><path fill="none" stroke="none"/><text fill="#000000" stroke="none" font-family="Arial" font-size="13px" font-style="normal" font-weight="bold" text-decoration="none" x="1070.62548828125" y="206.5">Filtrer le Catalogue</text></g></g><g transform="translate(-294,-118) scale(1,1)"><path fill="#C0C0C0" stroke="none" d="M 1047 256 C 1047 246.6111584 1089.9806592 239 1143 239 C 1196.0193408 239 1239 246.6111584 1239 256 C 1239 265.3888416 1196.0193408 273 1143 273 C 1089.9806592 273 1047 265.3888416 1047 256 Z" opacity="0.2"/></g><g transform="translate(-294,-118) scale(1,1)"><path fill="#ffffff" stroke="none" d="M 1040 249 C 1040 239.6111584 1082.9806592 232 1136 232 C 1189.0193408 232 1232 239.6111584 1232 249 C 1232 258.3888416 1189.0193408 266 1136 266 C 1082.9806592 266 1040 258.3888416 1040 249 Z"/></g><g transform="translate(-294,-118) scale(1,1)"><path fill="none" stroke="#000000" d="M 1040 249 C 1040 239.6111584 1082.9806592 232 1136 232 C 1189.0193408 232 1232 239.6111584 1232 249 C 1232 258.3888416 1189.0193408 266 1136 266 C 1082.9806592 266 1040 258.3888416 1040 249 Z" stroke-miterlimit="10"/></g><g transform="translate(-294,-118) scale(1,1)"><g><path fill="none" stroke="none"/><text fill="#000000" stroke="none" font-family="Arial" font-size="13px" font-style="normal" font-weight="bold" text-decoration="none" x="1077.604736328125" y="254.5">Voir Détails Burger</text></g></g><g transform="translate(-294,-118) scale(1,1)"><path fill="#C0C0C0" stroke="none" d="M 1055 312 C 1055 302.6111584 1092.1603616 295 1138 295 C 1183.8396384 295 1221 302.6111584 1221 312 C 1221 321.3888416 1183.8396384 329 1138 329 C 1092.1603616 329 1055 321.3888416 1055 312 Z" opacity="0.2"/></g><g transform="translate(-294,-118) scale(1,1)"><path fill="#ffffff" stroke="none" d="M 1048 305 C 1048 295.6111584 1085.1603616 288 1131 288 C 1176.8396384 288 1214 295.6111584 1214 305 C 1214 314.3888416 1176.8396384 322 1131 322 C 1085.1603616 322 1048 314.3888416 1048 305 Z"/></g><g transform="translate(-294,-118) scale(1,1)"><path fill="none" stroke="#000000" d="M 1048 305 C 1048 295.6111584 1085.1603616 288 1131 288 C 1176.8396384 288 1214 295.6111584 1214 305 C 1214 314.3888416 1176.8396384 322 1131 322 C 1085.1603616 322 1048 314.3888416 1048 305 Z" stroke-miterlimit="10"/></g><g transform="translate(-294,-118) scale(1,1)"><g><path fill="none" stroke="none"/><text fill="#000000" stroke="none" font-family="Arial" font-size="13px" font-style="normal" font-weight="bold" text-decoration="none" x="1076.943359375" y="310.5">Voir Détails Menu</text></g></g><g transform="translate(-294,-118) scale(1,1)"><path fill="none" stroke="#000000" d="M 1039 205 L 862 214" stroke-miterlimit="10" stroke-dasharray="3"/></g><g transform="translate(-294,-118) scale(1,1)"><path fill="none" stroke="#000000" d="M 871.9357955527175 209.27983403526963 L 862 214 L 872.3633297737965 217.6880070498229" stroke-miterlimit="10"/></g><g transform="translate(-294,-118) scale(1,1)"><g><path fill="none" stroke="none"/><text fill="#000000" stroke="none" font-family="Arial" font-size="13px" font-style="normal" font-weight="normal" text-decoration="none" x="935.5" y="203">«extend»</text></g></g><g transform="translate(-294,-118) scale(1,1)"><path fill="none" stroke="#000000" d="M 1039 241 L 862 227" stroke-miterlimit="10" stroke-dasharray="3"/></g><g transform="translate(-294,-118) scale(1,1)"><path fill="none" stroke="#000000" d="M 872.4629530130728 223.60491321963192 L 862 227 L 871.7991139118951 231.99773614166497" stroke-miterlimit="10"/></g><g transform="translate(-294,-118) scale(1,1)"><g><path fill="none" stroke="none"/><text fill="#000000" stroke="none" font-family="Arial" font-size="13px" font-style="normal" font-weight="normal" text-decoration="none" x="934.5" y="234">«extend»</text></g></g><g transform="translate(-294,-118) scale(1,1)"><path fill="none" stroke="#000000" d="M 1052 287 L 862 244" stroke-miterlimit="10" stroke-dasharray="3"/></g><g transform="translate(-294,-118) scale(1,1)"><path fill="none" stroke="#000000" d="M 872.841185561172 242.13755654361339 L 862 244 L 870.9828222239938 250.34892942881888" stroke-miterlimit="10"/></g><g transform="translate(-294,-118) scale(1,1)"><g><path fill="none" stroke="none"/><text fill="#000000" stroke="none" font-family="Arial" font-size="13px" font-style="normal" font-weight="normal" text-decoration="none" x="922.5" y="281">«extend»</text></g></g><g transform="translate(-294,-118) scale(1,1)"><path fill="#C0C0C0" stroke="none" d="M 1047 392 C 1047 382.6111584 1092.4430928 375 1148.5 375 C 1204.5569072 375 1250 382.6111584 1250 392 C 1250 401.3888416 1204.5569072 409 1148.5 409 C 1092.4430928 409 1047 401.3888416 1047 392 Z" opacity="0.2"/></g><g transform="translate(-294,-118) scale(1,1)"><path fill="#ffffff" stroke="none" d="M 1040 385 C 1040 375.6111584 1085.4430928 368 1141.5 368 C 1197.5569072 368 1243 375.6111584 1243 385 C 1243 394.3888416 1197.5569072 402 1141.5 402 C 1085.4430928 402 1040 394.3888416 1040 385 Z"/></g><g transform="translate(-294,-118) scale(1,1)"><path fill="none" stroke="#000000" d="M 1040 385 C 1040 375.6111584 1085.4430928 368 1141.5 368 C 1197.5569072 368 1243 375.6111584 1243 385 C 1243 394.3888416 1197.5569072 402 1141.5 402 C 1085.4430928 402 1040 394.3888416 1040 385 Z" stroke-miterlimit="10"/></g><g transform="translate(-294,-118) scale(1,1)"><g><path fill="none" stroke="none"/><text fill="#000000" stroke="none" font-family="Arial" font-size="13px" font-style="normal" font-weight="bold" text-decoration="none" x="1074.32275390625" y="390.5">Choisir Compléments</text></g></g><g transform="translate(-294,-118) scale(1,1)"><path fill="#C0C0C0" stroke="none" d="M 1215 449 C 1215 434.6405952 1259.77152 423 1315 423 C 1370.22848 423 1415 434.6405952 1415 449 C 1415 463.3594048 1370.22848 475 1315 475 C 1259.77152 475 1215 463.3594048 1215 449 Z" opacity="0.2"/></g><g transform="translate(-294,-118) scale(1,1)"><path fill="#ffffff" stroke="none" d="M 1208 442 C 1208 427.6405952 1252.77152 416 1308 416 C 1363.22848 416 1408 427.6405952 1408 442 C 1408 456.3594048 1363.22848 468 1308 468 C 1252.77152 468 1208 456.3594048 1208 442 Z"/></g><g transform="translate(-294,-118) scale(1,1)"><path fill="none" stroke="#000000" d="M 1208 442 C 1208 427.6405952 1252.77152 416 1308 416 C 1363.22848 416 1408 427.6405952 1408 442 C 1408 456.3594048 1363.22848 468 1308 468 C 1252.77152 468 1208 456.3594048 1208 442 Z" stroke-miterlimit="10"/></g><g transform="translate(-294,-118) scale(1,1)"><g><path fill="none" stroke="none"/><text fill="#000000" stroke="none" font-family="Arial" font-size="13px" font-style="normal" font-weight="bold" text-decoration="none" x="1250.2109375" y="441">Sélectionner Mode</text><text fill="#000000" stroke="none" font-family="Arial" font-size="13px" font-style="normal" font-weight="bold" text-decoration="none" x="1266.464111328125" y="454">Récupération</text></g></g><g transform="translate(-294,-118) scale(1,1)"><path fill="none" stroke="#000000" d="M 1048 403 L 849 442" stroke-miterlimit="10" stroke-dasharray="3"/></g><g transform="translate(-294,-118) scale(1,1)"><path fill="none" stroke="#000000" d="M 858.1633779440336 435.9145661900898 L 849 442 L 859.7825381962508 444.176435169352" stroke-miterlimit="10"/></g><g transform="translate(-294,-118) scale(1,1)"><g><path fill="none" stroke="none"/><text fill="#000000" stroke="none" font-family="Arial" font-size="13px" font-style="normal" font-weight="normal" text-decoration="none" x="950.5" y="406">«extend»</text></g></g><g transform="translate(-294,-118) scale(1,1)"><path fill="none" stroke="#000000" d="M 849 459 L 1207 446" stroke-miterlimit="10" stroke-dasharray="3"/></g><g transform="translate(-294,-118) scale(1,1)"><path fill="none" stroke="#000000" d="M 1196.9967777924783 450.57553772434943 L 1207 446 L 1196.6912599908833 442.1620474958079" stroke-miterlimit="10"/></g><g transform="translate(-294,-118) scale(1,1)"><g><path fill="none" stroke="none"/><text fill="#000000" stroke="none" font-family="Arial" font-size="13px" font-style="normal" font-weight="normal" text-decoration="none" x="988.5" y="442">«include»</text></g></g><g transform="translate(-294,-118) scale(1,1)"><path fill="#C0C0C0" stroke="none" d="M 1095 537 C 1095 522.6405952 1141.5623808 511 1199 511 C 1256.4376192 511 1303 522.6405952 1303 537 C 1303 551.3594048 1256.4376192 563 1199 563 C 1141.5623808 563 1095 551.3594048 1095 537 Z" opacity="0.2"/></g><g transform="translate(-294,-118) scale(1,1)"><path fill="#ffffff" stroke="none" d="M 1088 530 C 1088 515.6405952 1134.5623808 504 1192 504 C 1249.4376192 504 1296 515.6405952 1296 530 C 1296 544.3594048 1249.4376192 556 1192 556 C 1134.5623808 556 1088 544.3594048 1088 530 Z"/></g><g transform="translate(-294,-118) scale(1,1)"><path fill="none" stroke="#000000" d="M 1088 530 C 1088 515.6405952 1134.5623808 504 1192 504 C 1249.4376192 504 1296 515.6405952 1296 530 C 1296 544.3594048 1249.4376192 556 1192 556 C 1134.5623808 556 1088 544.3594048 1088 530 Z" stroke-miterlimit="10"/></g><g transform="translate(-294,-118) scale(1,1)"><g><path fill="none" stroke="none"/><text fill="#000000" stroke="none" font-family="Arial" font-size="13px" font-style="normal" font-weight="bold" text-decoration="none" x="1124.819580078125" y="529">Sélectionner Mode de</text><text fill="#000000" stroke="none" font-family="Arial" font-size="13px" font-style="normal" font-weight="bold" text-decoration="none" x="1163.464111328125" y="542">paiement</text></g></g><g transform="translate(-294,-118) scale(1,1)"><path fill="#C0C0C0" stroke="none" d="M 1335 616 C 1335 606.6111584 1368.3547824 599 1409.5 599 C 1450.6452176 599 1484 606.6111584 1484 616 C 1484 625.3888416 1450.6452176 633 1409.5 633 C 1368.3547824 633 1335 625.3888416 1335 616 Z" opacity="0.2"/></g><g transform="translate(-294,-118) scale(1,1)"><path fill="#ffffff" stroke="none" d="M 1328 609 C 1328 599.6111584 1361.3547824 592 1402.5 592 C 1443.6452176 592 1477 599.6111584 1477 609 C 1477 618.3888416 1443.6452176 626 1402.5 626 C 1361.3547824 626 1328 618.3888416 1328 609 Z"/></g><g transform="translate(-294,-118) scale(1,1)"><path fill="none" stroke="#000000" d="M 1328 609 C 1328 599.6111584 1361.3547824 592 1402.5 592 C 1443.6452176 592 1477 599.6111584 1477 609 C 1477 618.3888416 1443.6452176 626 1402.5 626 C 1361.3547824 626 1328 618.3888416 1328 609 Z" stroke-miterlimit="10"/></g><g transform="translate(-294,-118) scale(1,1)"><g><path fill="none" stroke="none"/><text fill="#000000" stroke="none" font-family="Arial" font-size="13px" font-style="normal" font-weight="bold" text-decoration="none" x="1354.324462890625" y="614.5">Payer par Wave</text></g></g><g transform="translate(-294,-118) scale(1,1)"><path fill="#C0C0C0" stroke="none" d="M 1367 552 C 1367 542.6111584 1396.3253456 535 1432.5 535 C 1468.6746544 535 1498 542.6111584 1498 552 C 1498 561.3888416 1468.6746544 569 1432.5 569 C 1396.3253456 569 1367 561.3888416 1367 552 Z" opacity="0.2"/></g><g transform="translate(-294,-118) scale(1,1)"><path fill="#ffffff" stroke="none" d="M 1360 545 C 1360 535.6111584 1389.3253456 528 1425.5 528 C 1461.6746544 528 1491 535.6111584 1491 545 C 1491 554.3888416 1461.6746544 562 1425.5 562 C 1389.3253456 562 1360 554.3888416 1360 545 Z"/></g><g transform="translate(-294,-118) scale(1,1)"><path fill="none" stroke="#000000" d="M 1360 545 C 1360 535.6111584 1389.3253456 528 1425.5 528 C 1461.6746544 528 1491 535.6111584 1491 545 C 1491 554.3888416 1461.6746544 562 1425.5 562 C 1389.3253456 562 1360 554.3888416 1360 545 Z" stroke-miterlimit="10"/></g><g transform="translate(-294,-118) scale(1,1)"><g><path fill="none" stroke="none"/><text fill="#000000" stroke="none" font-family="Arial" font-size="13px" font-style="normal" font-weight="bold" text-decoration="none" x="1383.5927734375" y="550.5">Payer par OM</text></g></g><g transform="translate(-294,-118) scale(1,1)"><path fill="none" stroke="#000000" d="M 1354 591 L 1264 557" stroke-miterlimit="10"/></g><g transform="translate(-294,-118) scale(1,1)"><path fill="#FFFFFF" stroke="none" d="M 1285.9890893906477 556.3072173716769 L 1264 557 L 1280.0385055146196 572.0587629258686"/></g><g transform="translate(-294,-118) scale(1,1)"><path fill="none" stroke="#000000" d="M 1285.9890893906477 556.3072173716769 L 1264 557 L 1280.0385055146196 572.0587629258686 L 1285.9890893906477 556.3072173716769" stroke-miterlimit="10"/></g><g transform="translate(-294,-118) scale(1,1)"><path fill="none" stroke="#000000" d="M 1359 541 L 1297 537" stroke-miterlimit="10"/></g><g transform="translate(-294,-118) scale(1,1)"><path fill="#FFFFFF" stroke="none" d="M 1317.8252175792916 529.9070237012121 L 1297 537 L 1316.7411442096707 546.7101609303339"/></g><g transform="translate(-294,-118) scale(1,1)"><path fill="none" stroke="#000000" d="M 1317.8252175792916 529.9070237012121 L 1297 537 L 1316.7411442096707 546.7101609303339 L 1317.8252175792916 529.9070237012121" stroke-miterlimit="10"/></g><g transform="translate(-294,-118) scale(1,1)"><path fill="none" stroke="#000000" d="M 849 479 L 1087 514" stroke-miterlimit="10" stroke-dasharray="3"/></g><g transform="translate(-294,-118) scale(1,1)"><path fill="none" stroke="#000000" d="M 1076.3330052534852 516.6861167282577 L 1087 514 L 1077.5579243262484 508.3566670334678" stroke-miterlimit="10"/></g><g transform="translate(-294,-118) scale(1,1)"><g><path fill="none" stroke="none"/><text fill="#000000" stroke="none" font-family="Arial" font-size="13px" font-style="normal" font-weight="normal" text-decoration="none" x="930.5" y="488">«include»</text></g></g><g transform="translate(-294,-118) scale(1,1)"><path fill="#C0C0C0" stroke="none" d="M 1295 329 C 1295 314.6405952 1330.817216 303 1375 303 C 1419.182784 303 1455 314.6405952 1455 329 C 1455 343.3594048 1419.182784 355 1375 355 C 1330.817216 355 1295 343.3594048 1295 329 Z" opacity="0.2"/></g><g transform="translate(-294,-118) scale(1,1)"><path fill="#ffffff" stroke="none" d="M 1288 322 C 1288 307.6405952 1323.817216 296 1368 296 C 1412.182784 296 1448 307.6405952 1448 322 C 1448 336.3594048 1412.182784 348 1368 348 C 1323.817216 348 1288 336.3594048 1288 322 Z"/></g><g transform="translate(-294,-118) scale(1,1)"><path fill="none" stroke="#000000" d="M 1288 322 C 1288 307.6405952 1323.817216 296 1368 296 C 1412.182784 296 1448 307.6405952 1448 322 C 1448 336.3594048 1412.182784 348 1368 348 C 1323.817216 348 1288 336.3594048 1288 322 Z" stroke-miterlimit="10"/></g><g transform="translate(-294,-118) scale(1,1)"><g><path fill="none" stroke="none"/><text fill="#000000" stroke="none" font-family="Arial" font-size="13px" font-style="normal" font-weight="bold" text-decoration="none" x="1318.155029296875" y="321">Consommer sur</text><text fill="#000000" stroke="none" font-family="Arial" font-size="13px" font-style="normal" font-weight="bold" text-decoration="none" x="1351.013671875" y="334">Place</text></g></g><g transform="translate(-294,-118) scale(1,1)"><path fill="#C0C0C0" stroke="none" d="M 1463 352 C 1463 342.6111584 1496.1309248 335 1537 335 C 1577.8690752 335 1611 342.6111584 1611 352 C 1611 361.3888416 1577.8690752 369 1537 369 C 1496.1309248 369 1463 361.3888416 1463 352 Z" opacity="0.2"/></g><g transform="translate(-294,-118) scale(1,1)"><path fill="#ffffff" stroke="none" d="M 1456 345 C 1456 335.6111584 1489.1309248 328 1530 328 C 1570.8690752 328 1604 335.6111584 1604 345 C 1604 354.3888416 1570.8690752 362 1530 362 C 1489.1309248 362 1456 354.3888416 1456 345 Z"/></g><g transform="translate(-294,-118) scale(1,1)"><path fill="none" stroke="#000000" d="M 1456 345 C 1456 335.6111584 1489.1309248 328 1530 328 C 1570.8690752 328 1604 335.6111584 1604 345 C 1604 354.3888416 1570.8690752 362 1530 362 C 1489.1309248 362 1456 354.3888416 1456 345 Z" stroke-miterlimit="10"/></g><g transform="translate(-294,-118) scale(1,1)"><g><path fill="none" stroke="none"/><text fill="#000000" stroke="none" font-family="Arial" font-size="13px" font-style="normal" font-weight="bold" text-decoration="none" x="1482.306884765625" y="350.5">Venir récupérer</text></g></g><g transform="translate(-294,-118) scale(1,1)"><path fill="#C0C0C0" stroke="none" d="M 1471 416 C 1471 406.6111584 1502.340064 399 1541 399 C 1579.659936 399 1611 406.6111584 1611 416 C 1611 425.3888416 1579.659936 433 1541 433 C 1502.340064 433 1471 425.3888416 1471 416 Z" opacity="0.2"/></g><g transform="translate(-294,-118) scale(1,1)"><path fill="#ffffff" stroke="none" d="M 1464 409 C 1464 399.6111584 1495.340064 392 1534 392 C 1572.659936 392 1604 399.6111584 1604 409 C 1604 418.3888416 1572.659936 426 1534 426 C 1495.340064 426 1464 418.3888416 1464 409 Z"/></g><g transform="translate(-294,-118) scale(1,1)"><path fill="none" stroke="#000000" d="M 1464 409 C 1464 399.6111584 1495.340064 392 1534 392 C 1572.659936 392 1604 399.6111584 1604 409 C 1604 418.3888416 1572.659936 426 1534 426 C 1495.340064 426 1464 418.3888416 1464 409 Z" stroke-miterlimit="10"/></g><g transform="translate(-294,-118) scale(1,1)"><g><path fill="none" stroke="none"/><text fill="#000000" stroke="none" font-family="Arial" font-size="13px" font-style="normal" font-weight="bold" text-decoration="none" x="1488.83642578125" y="414.5">Se Faire Livrer</text></g></g><g transform="translate(-294,-118) scale(1,1)"><path fill="none" stroke="#000000" d="M 1355 349 L 1322 415" stroke-miterlimit="10"/></g><g transform="translate(-294,-118) scale(1,1)"><path fill="#FFFFFF" stroke="none" d="M 1323.559558441995 393.0553474061219 L 1322 415 L 1338.6199870099056 400.58556169007716"/></g><g transform="translate(-294,-118) scale(1,1)"><path fill="none" stroke="#000000" d="M 1323.559558441995 393.0553474061219 L 1322 415 L 1338.6199870099056 400.58556169007716 L 1323.559558441995 393.0553474061219" stroke-miterlimit="10"/></g><g transform="translate(-294,-118) scale(1,1)"><path fill="none" stroke="#000000" d="M 1489 363 L 1370 415" stroke-miterlimit="10"/></g><g transform="translate(-294,-118) scale(1,1)"><path fill="#FFFFFF" stroke="none" d="M 1385.2537016665376 399.14677996531094 L 1370 415 L 1391.9959152767765 414.5760764964342"/></g><g transform="translate(-294,-118) scale(1,1)"><path fill="none" stroke="#000000" d="M 1385.2537016665376 399.14677996531094 L 1370 415 L 1391.9959152767765 414.5760764964342 L 1385.2537016665376 399.14677996531094" stroke-miterlimit="10"/></g><g transform="translate(-294,-118) scale(1,1)"><path fill="none" stroke="#000000" d="M 1463 419 L 1409 427" stroke-miterlimit="10"/></g><g transform="translate(-294,-118) scale(1,1)"><path fill="#FFFFFF" stroke="none" d="M 1427.872107929924 415.69320813487303 L 1409 427 L 1430.3397046938298 432.3494862912375"/></g><g transform="translate(-294,-118) scale(1,1)"><path fill="none" stroke="#000000" d="M 1427.872107929924 415.69320813487303 L 1409 427 L 1430.3397046938298 432.3494862912375 L 1427.872107929924 415.69320813487303" stroke-miterlimit="10"/></g><g transform="translate(-294,-118) scale(1,1)"><path fill="#C0C0C0" stroke="none" d="M 1455 505 C 1455 490.6405952 1494.3989376 479 1543 479 C 1591.6010624 479 1631 490.6405952 1631 505 C 1631 519.3594048 1591.6010624 531 1543 531 C 1494.3989376 531 1455 519.3594048 1455 505 Z" opacity="0.2"/></g><g transform="translate(-294,-118) scale(1,1)"><path fill="#ffffff" stroke="none" d="M 1448 498 C 1448 483.6405952 1487.3989376 472 1536 472 C 1584.6010624 472 1624 483.6405952 1624 498 C 1624 512.3594048 1584.6010624 524 1536 524 C 1487.3989376 524 1448 512.3594048 1448 498 Z"/></g><g transform="translate(-294,-118) scale(1,1)"><path fill="none" stroke="#000000" d="M 1448 498 C 1448 483.6405952 1487.3989376 472 1536 472 C 1584.6010624 472 1624 483.6405952 1624 498 C 1624 512.3594048 1584.6010624 524 1536 524 C 1487.3989376 524 1448 512.3594048 1448 498 Z" stroke-miterlimit="10"/></g><g transform="translate(-294,-118) scale(1,1)"><g><path fill="none" stroke="none"/><text fill="#000000" stroke="none" font-family="Arial" font-size="13px" font-style="normal" font-weight="bold" text-decoration="none" x="1483.62548828125" y="497">Sélectionner une</text><text fill="#000000" stroke="none" font-family="Arial" font-size="13px" font-style="normal" font-weight="bold" text-decoration="none" x="1480.378662109375" y="510">Zone de Livraison</text></g></g><g transform="translate(-294,-118) scale(1,1)"><path fill="none" stroke="#000000" d="M 1534 427 L 1535 471" stroke-miterlimit="10" stroke-dasharray="3"/></g><g transform="translate(-294,-118) scale(1,1)"><path fill="none" stroke="#000000" d="M 1530.5606587369277 460.93559494306874 L 1535 471 L 1538.9775207532446 460.7443026245161" stroke-miterlimit="10"/></g><g transform="translate(-294,-118) scale(1,1)"><g><path fill="none" stroke="none"/><text fill="#000000" stroke="none" font-family="Arial" font-size="13px" font-style="normal" font-weight="normal" text-decoration="none" x="1495.5" y="452">«include»</text></g></g><g transform="translate(-294,-118) scale(1,1)"><path fill="#C0C0C0" stroke="none" d="M 1287 177 C 1287 162.6405952 1312.0720512 151 1343 151 C 1373.9279488 151 1399 162.6405952 1399 177 C 1399 191.3594048 1373.9279488 203 1343 203 C 1312.0720512 203 1287 191.3594048 1287 177 Z" opacity="0.2"/></g><g transform="translate(-294,-118) scale(1,1)"><path fill="#ffffff" stroke="none" d="M 1280 170 C 1280 155.6405952 1305.0720512 144 1336 144 C 1366.9279488 144 1392 155.6405952 1392 170 C 1392 184.3594048 1366.9279488 196 1336 196 C 1305.0720512 196 1280 184.3594048 1280 170 Z"/></g><g transform="translate(-294,-118) scale(1,1)"><path fill="none" stroke="#000000" d="M 1280 170 C 1280 155.6405952 1305.0720512 144 1336 144 C 1366.9279488 144 1392 155.6405952 1392 170 C 1392 184.3594048 1366.9279488 196 1336 196 C 1305.0720512 196 1280 184.3594048 1280 170 Z" stroke-miterlimit="10"/></g><g transform="translate(-294,-118) scale(1,1)"><g><path fill="none" stroke="none"/><text fill="#000000" stroke="none" font-family="Arial" font-size="13px" font-style="normal" font-weight="bold" text-decoration="none" x="1305.293212890625" y="169">Filtrer Par</text><text fill="#000000" stroke="none" font-family="Arial" font-size="13px" font-style="normal" font-weight="bold" text-decoration="none" x="1318.66455078125" y="180.5">menu</text></g></g><g transform="translate(-294,-118) scale(1,1)"><path fill="#C0C0C0" stroke="none" d="M 1279 241 C 1279 226.6405952 1304.0720512 215 1335 215 C 1365.9279488 215 1391 226.6405952 1391 241 C 1391 255.3594048 1365.9279488 267 1335 267 C 1304.0720512 267 1279 255.3594048 1279 241 Z" opacity="0.2"/></g><g transform="translate(-294,-118) scale(1,1)"><path fill="#ffffff" stroke="none" d="M 1272 234 C 1272 219.6405952 1297.0720512 208 1328 208 C 1358.9279488 208 1384 219.6405952 1384 234 C 1384 248.3594048 1358.9279488 260 1328 260 C 1297.0720512 260 1272 248.3594048 1272 234 Z"/></g><g transform="translate(-294,-118) scale(1,1)"><path fill="none" stroke="#000000" d="M 1272 234 C 1272 219.6405952 1297.0720512 208 1328 208 C 1358.9279488 208 1384 219.6405952 1384 234 C 1384 248.3594048 1358.9279488 260 1328 260 C 1297.0720512 260 1272 248.3594048 1272 234 Z" stroke-miterlimit="10"/></g><g transform="translate(-294,-118) scale(1,1)"><g><path fill="none" stroke="none"/><text fill="#000000" stroke="none" font-family="Arial" font-size="13px" font-style="normal" font-weight="bold" text-decoration="none" x="1297.658203125" y="233">Filtrer par</text><text fill="#000000" stroke="none" font-family="Arial" font-size="13px" font-style="normal" font-weight="bold" text-decoration="none" x="1306.69091796875" y="246">Burger</text></g></g><g transform="translate(-294,-118) scale(1,1)"><path fill="none" stroke="#000000" d="M 1279 179 L 1220 187" stroke-miterlimit="10"/></g><g transform="translate(-294,-118) scale(1,1)"><path fill="#FFFFFF" stroke="none" d="M 1239.009828702031 175.9263189173862 L 1220 187 L 1241.2722537706143 192.61170379818736"/></g><g transform="translate(-294,-118) scale(1,1)"><path fill="none" stroke="#000000" d="M 1239.009828702031 175.9263189173862 L 1220 187 L 1241.2722537706143 192.61170379818736 L 1239.009828702031 175.9263189173862" stroke-miterlimit="10"/></g><g transform="translate(-294,-118) scale(1,1)"><path fill="none" stroke="#000000" d="M 1271 225 L 1220 216" stroke-miterlimit="10"/></g><g transform="translate(-294,-118) scale(1,1)"><path fill="#FFFFFF" stroke="none" d="M 1241.479175124452 211.24131993372916 L 1220 216 L 1238.5529653291508 227.82317544043605"/></g><g transform="translate(-294,-118) scale(1,1)"><path fill="none" stroke="#000000" d="M 1241.479175124452 211.24131993372916 L 1220 216 L 1238.5529653291508 227.82317544043605 L 1241.479175124452 211.24131993372916" stroke-miterlimit="10"/></g><g transform="translate(-294,-118) scale(1,1)"><path fill="#C0C0C0" stroke="none" d="M 759 810.5 C 759 790.8938896 803.77152 775 859 775 C 914.22848 775 959 790.8938896 959 810.5 C 959 830.1061104 914.22848 846 859 846 C 803.77152 846 759 830.1061104 759 810.5 Z" opacity="0.2"/></g><g transform="translate(-294,-118) scale(1,1)"><path fill="#ffffff" stroke="none" d="M 752 803.5 C 752 783.8938896 796.77152 768 852 768 C 907.22848 768 952 783.8938896 952 803.5 C 952 823.1061104 907.22848 839 852 839 C 796.77152 839 752 823.1061104 752 803.5 Z"/></g><g transform="translate(-294,-118) scale(1,1)"><path fill="none" stroke="#000000" d="M 752 803.5 C 752 783.8938896 796.77152 768 852 768 C 907.22848 768 952 783.8938896 952 803.5 C 952 823.1061104 907.22848 839 852 839 C 796.77152 839 752 823.1061104 752 803.5 Z" stroke-miterlimit="10"/></g><g transform="translate(-294,-118) scale(1,1)"><g><path fill="none" stroke="none"/><text fill="#000000" stroke="none" font-family="Arial" font-size="13px" font-style="normal" font-weight="bold" text-decoration="none" x="821.648681640625" y="796">Lister ses</text><text fill="#000000" stroke="none" font-family="Arial" font-size="13px" font-style="normal" font-weight="bold" text-decoration="none" x="804.67822265625" y="809">commandes en</text><text fill="#000000" stroke="none" font-family="Arial" font-size="13px" font-style="normal" font-weight="bold" text-decoration="none" x="834.299560546875" y="820.5">cours</text></g></g><g transform="translate(-294,-118) scale(1,1)"><path fill="none" stroke="#000000" d="M 770 720 L 817 767" stroke-miterlimit="10" stroke-dasharray="3"/></g><g transform="translate(-294,-118) scale(1,1)"><path fill="none" stroke="#000000" d="M 806.8373251423758 762.790482243984 L 817 767 L 812.790482243984 756.8373251423759" stroke-miterlimit="10"/></g><g transform="translate(-294,-118) scale(1,1)"><g><path fill="none" stroke="none"/><text fill="#000000" stroke="none" font-family="Arial" font-size="13px" font-style="normal" font-weight="normal" text-decoration="none" x="731.5" y="765">«include»</text></g></g><g transform="translate(-294,-118) scale(1,1)"><path fill="#C0C0C0" stroke="none" d="M 1255 834.5 C 1255 819.312168 1284.5492032 807 1321 807 C 1357.4507968 807 1387 819.312168 1387 834.5 C 1387 849.687832 1357.4507968 862 1321 862 C 1284.5492032 862 1255 849.687832 1255 834.5 Z" opacity="0.2"/></g><g transform="translate(-294,-118) scale(1,1)"><path fill="#ffffff" stroke="none" d="M 1248 827.5 C 1248 812.312168 1277.5492032 800 1314 800 C 1350.4507968 800 1380 812.312168 1380 827.5 C 1380 842.687832 1350.4507968 855 1314 855 C 1277.5492032 855 1248 842.687832 1248 827.5 Z"/></g><g transform="translate(-294,-118) scale(1,1)"><path fill="none" stroke="#000000" d="M 1248 827.5 C 1248 812.312168 1277.5492032 800 1314 800 C 1350.4507968 800 1380 812.312168 1380 827.5 C 1380 842.687832 1350.4507968 855 1314 855 C 1277.5492032 855 1248 842.687832 1248 827.5 Z" stroke-miterlimit="10"/></g><g transform="translate(-294,-118) scale(1,1)"><g><path fill="none" stroke="none"/><text fill="#000000" stroke="none" font-family="Arial" font-size="13px" font-style="normal" font-weight="bold" text-decoration="none" x="1273.447998046875" y="825.5">s'authentifier</text></g></g><g transform="translate(-294,-118) scale(1,1)"><g><path fill="none" stroke="none"/><text fill="#000000" stroke="none" font-family="Arial" font-size="13px" font-style="normal" font-weight="normal" text-decoration="none" x="1271.740478515625" y="840.5">(from Analyse)</text></g></g><g transform="translate(-294,-118) scale(1,1)"><path fill="none" stroke="#000000" d="M 803 503 L 1270 799" stroke-miterlimit="10" stroke-dasharray="3"/></g><g transform="translate(-294,-118) scale(1,1)"><path fill="none" stroke="#000000" d="M 1259.16273859626 797.1148566985494 L 1270 799 L 1263.6698965838882 790.00390135996" stroke-miterlimit="10"/></g><g transform="translate(-294,-118) scale(1,1)"><g><path fill="none" stroke="none"/><text fill="#000000" stroke="none" font-family="Arial" font-size="13px" font-style="normal" font-weight="normal" text-decoration="none" x="986.5" y="656">«include»</text></g></g><g transform="translate(-294,-118) scale(1,1)"><path fill="none" stroke="#000000" d="M 853 717 L 1247 811" stroke-miterlimit="10" stroke-dasharray="3"/></g><g transform="translate(-294,-118) scale(1,1)"><path fill="none" stroke="#000000" d="M 1236.1378806494076 812.7361921591485 L 1247 811 L 1238.0916484999618 804.5469949983153" stroke-miterlimit="10"/></g><g transform="translate(-294,-118) scale(1,1)"><g><path fill="none" stroke="none"/><text fill="#000000" stroke="none" font-family="Arial" font-size="13px" font-style="normal" font-weight="normal" text-decoration="none" x="1028.5" y="739">«include»</text></g></g><g transform="translate(-294,-118) scale(1,1)"><path fill="#C0C0C0" stroke="none" d="M 1463 818.5 C 1463 803.312168 1492.5492032 791 1529 791 C 1565.4507968 791 1595 803.312168 1595 818.5 C 1595 833.687832 1565.4507968 846 1529 846 C 1492.5492032 846 1463 833.687832 1463 818.5 Z" opacity="0.2"/></g><g transform="translate(-294,-118) scale(1,1)"><path fill="#ffffff" stroke="none" d="M 1456 811.5 C 1456 796.312168 1485.5492032 784 1522 784 C 1558.4507968 784 1588 796.312168 1588 811.5 C 1588 826.687832 1558.4507968 839 1522 839 C 1485.5492032 839 1456 826.687832 1456 811.5 Z"/></g><g transform="translate(-294,-118) scale(1,1)"><path fill="none" stroke="#000000" d="M 1456 811.5 C 1456 796.312168 1485.5492032 784 1522 784 C 1558.4507968 784 1588 796.312168 1588 811.5 C 1588 826.687832 1558.4507968 839 1522 839 C 1485.5492032 839 1456 826.687832 1456 811.5 Z" stroke-miterlimit="10"/></g><g transform="translate(-294,-118) scale(1,1)"><g><path fill="none" stroke="none"/><text fill="#000000" stroke="none" font-family="Arial" font-size="13px" font-style="normal" font-weight="bold" text-decoration="none" x="1481.898681640625" y="809">se connecter</text></g></g><g transform="translate(-294,-118) scale(1,1)"><g><path fill="none" stroke="none"/><text fill="#000000" stroke="none" font-family="Arial" font-size="13px" font-style="normal" font-weight="normal" text-decoration="none" x="1479.740478515625" y="824.5">(from Analyse)</text></g></g><g transform="translate(-294,-118) scale(1,1)"><path fill="none" stroke="#000000" d="M 1455 816 L 1381 822" stroke-miterlimit="10"/></g><g transform="translate(-294,-118) scale(1,1)"><path fill="#FFFFFF" stroke="none" d="M 1400.5784748052001 811.9658919528371 L 1381 822 L 1401.9392581433544 828.7488864567396"/></g><g transform="translate(-294,-118) scale(1,1)"><path fill="none" stroke="#000000" d="M 1400.5784748052001 811.9658919528371 L 1381 822 L 1401.9392581433544 828.7488864567396 L 1400.5784748052001 811.9658919528371" stroke-miterlimit="10"/></g><g transform="translate(-294,-118) scale(1,1)"><path fill="#C0C0C0" stroke="none" d="M 1455 914.5 C 1455 899.312168 1489.9217856 887 1533 887 C 1576.0782144 887 1611 899.312168 1611 914.5 C 1611 929.687832 1576.0782144 942 1533 942 C 1489.9217856 942 1455 929.687832 1455 914.5 Z" opacity="0.2"/></g><g transform="translate(-294,-118) scale(1,1)"><path fill="#ffffff" stroke="none" d="M 1448 907.5 C 1448 892.312168 1482.9217856 880 1526 880 C 1569.0782144 880 1604 892.312168 1604 907.5 C 1604 922.687832 1569.0782144 935 1526 935 C 1482.9217856 935 1448 922.687832 1448 907.5 Z"/></g><g transform="translate(-294,-118) scale(1,1)"><path fill="none" stroke="#000000" d="M 1448 907.5 C 1448 892.312168 1482.9217856 880 1526 880 C 1569.0782144 880 1604 892.312168 1604 907.5 C 1604 922.687832 1569.0782144 935 1526 935 C 1482.9217856 935 1448 922.687832 1448 907.5 Z" stroke-miterlimit="10"/></g><g transform="translate(-294,-118) scale(1,1)"><g><path fill="none" stroke="none"/><text fill="#000000" stroke="none" font-family="Arial" font-size="13px" font-style="normal" font-weight="bold" text-decoration="none" x="1475.42822265625" y="905.5">créer un compte</text></g></g><g transform="translate(-294,-118) scale(1,1)"><g><path fill="none" stroke="none"/><text fill="#000000" stroke="none" font-family="Arial" font-size="13px" font-style="normal" font-weight="normal" text-decoration="none" x="1483.740478515625" y="920.5">(from Analyse)</text></g></g><g transform="translate(-294,-118) scale(1,1)"><path fill="none" stroke="#000000" d="M 1452 879 L 1381 852" stroke-miterlimit="10"/></g><g transform="translate(-294,-118) scale(1,1)"><path fill="#FFFFFF" stroke="none" d="M 1402.9905534515162 851.3553614221852 L 1381 852 L 1397.0054977773996 867.0938411578251"/></g><g transform="translate(-294,-118) scale(1,1)"><path fill="none" stroke="#000000" d="M 1402.9905534515162 851.3553614221852 L 1381 852 L 1397.0054977773996 867.0938411578251 L 1402.9905534515162 851.3553614221852" stroke-miterlimit="10"/></g><g transform="translate(-294,-118) scale(1,1)"><path fill="#C0C0C0" stroke="none" d="M 663 907.5 C 663 887.3416048 707.77152 871 763 871 C 818.22848 871 863 887.3416048 863 907.5 C 863 927.6583952 818.22848 944 763 944 C 707.77152 944 663 927.6583952 663 907.5 Z" opacity="0.2"/></g><g transform="translate(-294,-118) scale(1,1)"><path fill="#ffffff" stroke="none" d="M 656 900.5 C 656 880.3416048 700.77152 864 756 864 C 811.22848 864 856 880.3416048 856 900.5 C 856 920.6583952 811.22848 937 756 937 C 700.77152 937 656 920.6583952 656 900.5 Z"/></g><g transform="translate(-294,-118) scale(1,1)"><path fill="none" stroke="#000000" d="M 656 900.5 C 656 880.3416048 700.77152 864 756 864 C 811.22848 864 856 880.3416048 856 900.5 C 856 920.6583952 811.22848 937 756 937 C 700.77152 937 656 920.6583952 656 900.5 Z" stroke-miterlimit="10"/></g><g transform="translate(-294,-118) scale(1,1)"><g><path fill="none" stroke="none"/><text fill="#000000" stroke="none" font-family="Arial" font-size="13px" font-style="normal" font-weight="bold" text-decoration="none" x="699.65185546875" y="892">Changer ses infos</text><text fill="#000000" stroke="none" font-family="Arial" font-size="13px" font-style="normal" font-weight="bold" text-decoration="none" x="715.90185546875" y="905">personnelles</text></g></g><g transform="translate(-294,-118) scale(1,1)"><g><path fill="none" stroke="none"/><text fill="#000000" stroke="none" font-family="Arial" font-size="13px" font-style="normal" font-weight="normal" text-decoration="none" x="713.740478515625" y="920">(from Analyse)</text></g></g><g transform="translate(-294,-118) scale(1,1)"><path fill="none" stroke="#000000" d="M 399 565 L 717 863" stroke-miterlimit="10"/></g><g transform="translate(-294,-118) scale(1,1)"><path fill="none" stroke="#000000" d="M 857 887 L 1247 836" stroke-miterlimit="10" stroke-dasharray="3"/></g><g transform="translate(-294,-118) scale(1,1)"><path fill="none" stroke="#000000" d="M 1237.4689484036928 841.4917260919068 L 1247 836 L 1236.377292024406 833.1437655444188" stroke-miterlimit="10"/></g><g transform="translate(-294,-118) scale(1,1)"><g><path fill="none" stroke="none"/><text fill="#000000" stroke="none" font-family="Arial" font-size="13px" font-style="normal" font-weight="normal" text-decoration="none" x="986.5" y="859">«include»</text></g></g><g transform="translate(-294,-118) scale(1,1)"><path fill="#C0C0C0" stroke="none" d="M 847 1000 C 847 990.6111584 877.4446336 983 915 983 C 952.5553664 983 983 990.6111584 983 1000 C 983 1009.3888416 952.5553664 1017 915 1017 C 877.4446336 1017 847 1009.3888416 847 1000 Z" opacity="0.2"/></g><g transform="translate(-294,-118) scale(1,1)"><path fill="#ffffff" stroke="none" d="M 840 993 C 840 983.6111584 870.4446336 976 908 976 C 945.5553664 976 976 983.6111584 976 993 C 976 1002.3888416 945.5553664 1010 908 1010 C 870.4446336 1010 840 1002.3888416 840 993 Z"/></g><g transform="translate(-294,-118) scale(1,1)"><path fill="none" stroke="#000000" d="M 840 993 C 840 983.6111584 870.4446336 976 908 976 C 945.5553664 976 976 983.6111584 976 993 C 976 1002.3888416 945.5553664 1010 908 1010 C 870.4446336 1010 840 1002.3888416 840 993 Z" stroke-miterlimit="10"/></g><g transform="translate(-294,-118) scale(1,1)"><g><path fill="none" stroke="none"/><text fill="#000000" stroke="none" font-family="Arial" font-size="13px" font-style="normal" font-weight="bold" text-decoration="none" x="865.38818359375" y="998.5">Afficher profil</text></g></g><g transform="translate(-294,-118) scale(1,1)"><path fill="none" stroke="#000000" d="M 818 938 L 879 975" stroke-miterlimit="10" stroke-dasharray="3"/></g><g transform="translate(-294,-118) scale(1,1)"><path fill="none" stroke="#000000" d="M 868.1277085918769 973.3286892757922 L 879 975 L 872.493924164837 966.1303338717228" stroke-miterlimit="10"/></g><g transform="translate(-294,-118) scale(1,1)"><g><path fill="none" stroke="none"/><text fill="#000000" stroke="none" font-family="Arial" font-size="13px" font-style="normal" font-weight="normal" text-decoration="none" x="821.5" y="947">«include»</text></g></g><g transform="translate(-294,-118) scale(1,1)"><path fill="#C0C0C0" stroke="none" d="M 1247 976 C 1247 966.6111584 1280.57864 959 1322 959 C 1363.42136 959 1397 966.6111584 1397 976 C 1397 985.3888416 1363.42136 993 1322 993 C 1280.57864 993 1247 985.3888416 1247 976 Z" opacity="0.2"/></g><g transform="translate(-294,-118) scale(1,1)"><path fill="#ffffff" stroke="none" d="M 1240 969 C 1240 959.6111584 1273.57864 952 1315 952 C 1356.42136 952 1390 959.6111584 1390 969 C 1390 978.3888416 1356.42136 986 1315 986 C 1273.57864 986 1240 978.3888416 1240 969 Z"/></g><g transform="translate(-294,-118) scale(1,1)"><path fill="none" stroke="#000000" d="M 1240 969 C 1240 959.6111584 1273.57864 952 1315 952 C 1356.42136 952 1390 959.6111584 1390 969 C 1390 978.3888416 1356.42136 986 1315 986 C 1273.57864 986 1240 978.3888416 1240 969 Z" stroke-miterlimit="10"/></g><g transform="translate(-294,-118) scale(1,1)"><g><path fill="none" stroke="none"/><text fill="#000000" stroke="none" font-family="Arial" font-size="13px" font-style="normal" font-weight="bold" text-decoration="none" x="1266.5927734375" y="974.5">Se déconnecter</text></g></g><g transform="translate(-294,-118) scale(1,1)"><path fill="none" stroke="#000000" d="M 1315 951 L 1314 856" stroke-miterlimit="10" stroke-dasharray="3"/></g><g transform="translate(-294,-118) scale(1,1)"><path fill="none" stroke="#000000" d="M 1318.3162541598024 866.1178036167929 L 1314 856 L 1309.897685037573 866.2064201338691" stroke-miterlimit="10"/></g><g transform="translate(-294,-118) scale(1,1)"><g><path fill="none" stroke="none"/><text fill="#000000" stroke="none" font-family="Arial" font-size="13px" font-style="normal" font-weight="normal" text-decoration="none" x="1257.5" y="907">«extend»</text></g></g><g transform="translate(-294,-118) scale(1,1)"><path fill="#C0C0C0" stroke="none" d="M 1031 608 C 1031 598.6111584 1079.129384 591 1138.5 591 C 1197.870616 591 1246 598.6111584 1246 608 C 1246 617.3888416 1197.870616 625 1138.5 625 C 1079.129384 625 1031 617.3888416 1031 608 Z" opacity="0.2"/></g><g transform="translate(-294,-118) scale(1,1)"><path fill="#ffffff" stroke="none" d="M 1024 601 C 1024 591.6111584 1072.129384 584 1131.5 584 C 1190.870616 584 1239 591.6111584 1239 601 C 1239 610.3888416 1190.870616 618 1131.5 618 C 1072.129384 618 1024 610.3888416 1024 601 Z"/></g><g transform="translate(-294,-118) scale(1,1)"><path fill="none" stroke="#000000" d="M 1024 601 C 1024 591.6111584 1072.129384 584 1131.5 584 C 1190.870616 584 1239 591.6111584 1239 601 C 1239 610.3888416 1190.870616 618 1131.5 618 C 1072.129384 618 1024 610.3888416 1024 601 Z" stroke-miterlimit="10"/></g><g transform="translate(-294,-118) scale(1,1)"><g><path fill="none" stroke="none"/><text fill="#000000" stroke="none" font-family="Arial" font-size="13px" font-style="normal" font-weight="bold" text-decoration="none" x="1059.984130859375" y="606.5">Notifier le Gestionnaire</text></g></g><g transform="translate(-294,-118) scale(1,1)"><path fill="none" stroke="#000000" d="M 849 501 L 1080 583" stroke-miterlimit="10" stroke-dasharray="3"/></g><g transform="translate(-294,-118) scale(1,1)"><path fill="none" stroke="#000000" d="M 1069.0146386212577 583.5673053661302 L 1080 583 L 1071.8310310039124 575.6333219467008" stroke-miterlimit="10"/></g><g transform="translate(-294,-118) scale(1,1)"><g><path fill="none" stroke="none"/><text fill="#000000" stroke="none" font-family="Arial" font-size="13px" font-style="normal" font-weight="normal" text-decoration="none" x="945.5" y="518">«include»</text></g></g></g></svg>